<?xml version="1.0" encoding="UTF-8"?>
<svg version="1.1" viewBox="0 0 726.82 945.49" xmlns="http://www.w3.org/2000/svg" xmlns:xlink="http://www.w3.org/1999/xlink">
 <defs>
  <linearGradient id="aw">
   <stop stop-color="#bdf3f5" offset="0"/>
   <stop stop-color="#fff" offset="1"/>
  </linearGradient>
  <linearGradient id="a">
   <stop stop-color="#de8a2c" offset="0"/>
   <stop stop-color="#de8a2c" stop-opacity="0" offset="1"/>
  </linearGradient>
  <linearGradient id="b">
   <stop stop-color="#942917" offset="0"/>
   <stop stop-color="#671d10" offset="1"/>
  </linearGradient>
  <linearGradient id="ay">
   <stop stop-color="#fefbf6" offset="0"/>
   <stop stop-color="#f5e2bb" stop-opacity="0" offset="1"/>
  </linearGradient>
  <linearGradient id="av">
   <stop stop-color="#13dc00" offset="0"/>
   <stop stop-color="#b8ff3c" offset="1"/>
  </linearGradient>
  <linearGradient id="ax">
   <stop stop-color="#00f" offset="0"/>
   <stop offset="1"/>
  </linearGradient>
  <linearGradient id="br" x1="284.2" x2="294.9" y1="205.99" y2="220.59" gradientUnits="userSpaceOnUse" xlink:href="#ax"/>
  <linearGradient id="bs" x1="283.99" x2="295.6" y1="205.23" y2="219.81" gradientUnits="userSpaceOnUse" xlink:href="#ax"/>
  <linearGradient id="bt" x1="456.96" x2="439.03" y1="370.53" y2="374.07" gradientUnits="userSpaceOnUse" xlink:href="#b"/>
  <linearGradient id="bu" x1="614.7" x2="639.58" y1="233.32" y2="262.11" gradientUnits="userSpaceOnUse" xlink:href="#a"/>
  <linearGradient id="bv" x1="591.81" x2="627.16" y1="146.52" y2="184.91" gradientUnits="userSpaceOnUse" xlink:href="#a"/>
  <linearGradient id="bw" x1="664.94" x2="658.21" y1="282.49" y2="269.36" gradientUnits="userSpaceOnUse" xlink:href="#b"/>
  <linearGradient id="bx" x1="663.95" x2="657.99" y1="313.4" y2="301.53" gradientUnits="userSpaceOnUse" xlink:href="#b"/>
  <linearGradient id="by" x1="607.47" x2="628.94" y1="291.24" y2="299.82" gradientUnits="userSpaceOnUse" xlink:href="#b"/>
  <linearGradient id="bz" x1="192.95" x2="245.74" y1="576.51" y2="591.51" gradientUnits="userSpaceOnUse" xlink:href="#b"/>
  <linearGradient id="ca" x1="87.757" x2="136.08" y1="487.08" y2="541.63" gradientUnits="userSpaceOnUse" xlink:href="#a"/>
  <linearGradient id="cb" x1="113.74" x2="174.79" y1="859.98" y2="886.76" gradientUnits="userSpaceOnUse" xlink:href="#a"/>
  <linearGradient id="cc" x1="151" x2="184.45" y1="780.69" y2="823.85" gradientUnits="userSpaceOnUse" xlink:href="#a"/>
  <linearGradient id="cd" x1="244.18" x2="251.52" y1="508.49" y2="534.5" gradientUnits="userSpaceOnUse" xlink:href="#a"/>
  <linearGradient id="ce" x1="270.69" x2="263.39" y1="525.41" y2="558.62" gradientUnits="userSpaceOnUse" xlink:href="#a"/>
  <linearGradient id="cf" x1="290.8" x2="304.94" y1="516.79" y2="549.37" gradientUnits="userSpaceOnUse" xlink:href="#a"/>
  <linearGradient id="cg" x1="283.64" x2="279.56" y1="519.96" y2="533.72" gradientUnits="userSpaceOnUse" xlink:href="#b"/>
  <linearGradient id="ch" x1="264.22" x2="308.45" y1="411.65" y2="444.15" gradientUnits="userSpaceOnUse" xlink:href="#a"/>
  <linearGradient id="ci" x1="369.08" x2="347.84" y1="459.57" y2="442.65" gradientUnits="userSpaceOnUse" xlink:href="#b"/>
  <linearGradient id="cj" x1="466.91" x2="408.57" y1="475.24" y2="468.81" gradientUnits="userSpaceOnUse" xlink:href="#a"/>
  <linearGradient id="ck" x1="396.47" x2="388.05" y1="370.57" y2="343.3" gradientUnits="userSpaceOnUse" xlink:href="#b"/>
  <linearGradient id="cl" x1="396.72" x2="391.79" y1="667.26" y2="614.73" gradientUnits="userSpaceOnUse" xlink:href="#b"/>
  <linearGradient id="cm" x1="531.95" x2="474.87" y1="840.99" y2="881.35" gradientTransform="translate(7.2583 8.0809)" gradientUnits="userSpaceOnUse" xlink:href="#a"/>
  <linearGradient id="cn" x1="293.51" x2="314.5" y1="108.49" y2="112.03" gradientTransform="matrix(1.0542 0 0 1.0542 -19.951 -26.289)" gradientUnits="userSpaceOnUse" xlink:href="#a"/>
  <linearGradient id="az" x1="318.25" x2="325.79" y1="80.206" y2="106.28" gradientTransform="matrix(1.0542 0 0 1.0542 -19.951 -26.289)" gradientUnits="userSpaceOnUse" xlink:href="#a"/>
  <linearGradient id="ba" x1="345.42" x2="348.91" y1="120.73" y2="146.09" gradientTransform="matrix(1.0542 0 0 1.0542 -19.951 -26.289)" gradientUnits="userSpaceOnUse" xlink:href="#a"/>
  <linearGradient id="bb" x1="270.09" x2="280.1" y1="135.73" y2="161.09" gradientTransform="matrix(1.0542 0 0 1.0542 -19.951 -26.289)" gradientUnits="userSpaceOnUse" xlink:href="#a"/>
  <linearGradient id="bc" x1="219.89" x2="237.79" y1="164.23" y2="182.91" gradientTransform="matrix(1.0542 0 0 1.0542 -19.951 -26.289)" gradientUnits="userSpaceOnUse" xlink:href="#a"/>
  <linearGradient id="bd" x1="371.56" x2="381.79" y1="296.1" y2="320.39" gradientTransform="matrix(1.0542 0 0 1.0542 -19.951 -26.289)" gradientUnits="userSpaceOnUse">
   <stop stop-color="#f5e2bb" offset="0"/>
   <stop stop-color="#f5e2bb" stop-opacity="0" offset="1"/>
  </linearGradient>
  <linearGradient id="be" x1="426.53" x2="413.32" y1="84.468" y2="78.754" gradientTransform="matrix(1.0542 0 0 1.0542 -19.951 -26.289)" gradientUnits="userSpaceOnUse" xlink:href="#av"/>
  <linearGradient id="bf" x1="438.27" x2="423.48" y1="146.95" y2="93.02" gradientTransform="matrix(1.0542 0 0 1.0542 -19.951 -26.289)" gradientUnits="userSpaceOnUse" xlink:href="#av"/>
  <linearGradient id="bg" x1="369.41" x2="396.06" y1="83.58" y2="92.508" gradientTransform="matrix(1.0542 0 0 1.0542 -19.951 -26.289)" gradientUnits="userSpaceOnUse" xlink:href="#aw"/>
  <linearGradient id="bh" x1="248.66" x2="295.75" y1="60.163" y2="102.31" gradientTransform="matrix(1.0542 0 0 1.0542 -19.951 -26.289)" gradientUnits="userSpaceOnUse">
   <stop stop-color="#13dc00" offset="0"/>
   <stop stop-color="#08b100" offset="1"/>
  </linearGradient>
  <linearGradient id="bi" x1="310.47" x2="339.11" y1="169.5" y2="200.22" gradientTransform="matrix(1.0542 0 0 1.0542 -19.951 -26.289)" gradientUnits="userSpaceOnUse" xlink:href="#aw"/>
  <linearGradient id="bj" x1="257.07" x2="282.39" y1="185.08" y2="199.35" gradientTransform="matrix(1.0542 0 0 1.0542 -19.951 -26.289)" gradientUnits="userSpaceOnUse" xlink:href="#aw"/>
  <linearGradient id="bk" x1="323.04" x2="380.92" y1="304.35" y2="278.99" gradientTransform="matrix(1.0542 0 0 1.0542 -19.951 -26.289)" gradientUnits="userSpaceOnUse">
   <stop stop-color="#800000" offset="0"/>
   <stop stop-color="#410000" offset="1"/>
  </linearGradient>
  <linearGradient id="bl" x1="408.73" x2="408.79" y1="208.52" y2="254.23" gradientTransform="matrix(1.0542 0 0 1.0542 -19.951 -26.289)" gradientUnits="userSpaceOnUse" xlink:href="#ay"/>
  <linearGradient id="bm" x1="291.23" x2="292.23" y1="228.14" y2="249.04" gradientTransform="matrix(1.0542 0 0 1.0542 -19.951 -26.289)" gradientUnits="userSpaceOnUse" xlink:href="#ay"/>
  <linearGradient id="bn" x1="483.87" x2="472.8" y1="199.44" y2="173.17" gradientTransform="matrix(1.0542 0 0 1.0542 -19.951 -26.289)" gradientUnits="userSpaceOnUse" xlink:href="#b"/>
  <linearGradient id="bo" x1="222.63" x2="247.14" y1="205.55" y2="213.77" gradientTransform="matrix(1.0542 0 0 1.0542 -19.951 -26.289)" gradientUnits="userSpaceOnUse" xlink:href="#b"/>
  <linearGradient id="bp" x1="415.42" x2="363.57" y1="148.7" y2="90.481" gradientTransform="matrix(1.0542 0 0 1.0542 -19.951 -26.289)" gradientUnits="userSpaceOnUse" xlink:href="#av"/>
  <linearGradient id="bq" x1="500.03" x2="503.83" y1="128.18" y2="169.85" gradientTransform="matrix(1.0542 0 0 1.0542 -19.951 -26.289)" gradientUnits="userSpaceOnUse" xlink:href="#a"/>
 </defs>
 <g transform="translate(-5.0053 -12.714)">
  <g transform="matrix(1.0542 0 0 1.0542 -19.951 -26.289)">
   <path d="m618.69 145.44c-13.913 0.47127-30.356 6.8438-34.719 21.25-1.8417 11.477 9.621 19.322 10.125 30.375 3.2078 15.718-2.4742 32.125-13.594 43.531-6.3023 8.0538-11.99 17.598-11.656 28.188-50.918 31.83-100.58 67.614-157.66 87.406-4.2628 1.4347-8.514 2.7973-12.875 3.9688 8.4211 18.025 16.804 36.068 25.156 54.125 56.776-29.69 113.36-60.095 170.19-89.469 12.113 4.3651 26.949 6.2407 38.656 0.0625 6.7057 9.7548 20.954 7.7105 30.156 2.875 16.665-6.8694 36.722-12.419 45.812-29.469 3.9714-7.7781 2.6875-17.598-1.7812-24.5 3.7145-8.1908 1.8702-18.427-2.9375-25.188 7.134-10.475 5.3416-27.28-6.6562-33.469-14.501-9.2926-33.228-9.9967-49.25-4.2201-5.396 2.4703-4.9606-0.27845-2.8757-4.5004 5.5095-15.784 8.8252-35.3-1.0932-50.061-5.8366-7.5904-15.624-11.185-25-10.906z" stroke="#000" stroke-linejoin="round" stroke-width="5"/>
   <path d="m403.93 362.72s38.929-10.357 94.286-44.643 72.5-45.714 72.5-45.714 0.53571 4.7321 4.4643 6.6071c-2.3214-6.4286-4.9107-14.732 2.9464-27.946s20.536-20.982 20.714-43.839-10.357-28.482-11.161-36.786c-0.80357-8.3036 9.7322-17.143 22.946-20 13.214-2.8571 24.464 0.80358 30.357 9.0179 5.8929 8.2143 5.7143 22.768 3.8393 32.232-1.875 9.4643-8.3929 25.446-8.3929 25.446s6.6072 4.0179 8.75 9.1072c2.1429 5.0893 1.25 10.893 1.25 10.893s-27.232 7.9464-32.054 13.482c-4.8214 5.5357-9.0179 17.946-5.3571 25.714 3.6607 7.7679 10.893 9.1071 10.893 9.1071-3.0357 5.3571-2.1429 9.9107-2.1429 9.9107s-8.75 4.5536-18.75 4.375-13.036-0.0893-18.75-5.1786c0.44643 2.3214 3.0357 9.375 17.946 8.3928 14.911-0.98214 20.446-4.375 20.446-4.375s3.3036 7.6786 7.9464 9.6429c4.6429 1.9643 7.6786 1.3393 7.6786 1.3393-2.8171 3.2535-3.5636 8.0708-2.5 11.071 0 0-5.5357 4.6428-17.232 4.1071-11.696-0.53572-20.804-2.3214-27.232-8.75 0.44643 4.1071 2.5893 6.0714 2.5893 6.0714l-164.55 86.786z" fill="url(#bt)"/>
   <path d="m640.45 216.56c1.4286 1.3393 3.75 2.6786 5 9.2857 1.25 6.6072 0.26786 11.429 0.26786 11.429l28.661-10.357c-18.75 11.696-51.429 18.571-57.143 24.464-4.417 4.555-9.2857 14.911-6.6071 22.768 2.6786 7.8572 8.9286 9.375 12.5 9.2857s66.339-20.714 75.893-35.268 4.0179-26.607-8.2143-31.964c-12.232-5.3572-24.286-6.3393-33.571-3.6607-9.2857 2.6786-16.786 4.0179-16.786 4.0179z" fill="#942917"/>
   <path d="m699.82 251.11s-3.3929 5.2679-14.018 10.446-13.839 6.4286-29.464 12.768c-15.625 6.3393-33.571 11.071-33.571 11.071s-3.8393 5.1786-2.0536 10.625 5.1786 10.804 10.357 11.25c5.1786 0.44643 27.232-3.2143 43.571-12.143 16.339-8.9286 28.825-15.435 29.732-29.821 0.625-9.9107-4.5536-14.196-4.5536-14.196z" fill="url(#bw)"/>
   <path d="m703.21 277.18s4.9107 4.4643 3.125 14.375-14.464 20.893-29.464 26.071-28.299 14.554-38.036 8.0357c-10.536-7.0536-1.7857-16.161-1.7857-16.161s10.893-1.1607 24.286-6.25 28.008-13.616 36.071-19.821c4.193-3.2268 5.8036-6.25 5.8036-6.25z" fill="url(#bx)"/>
   <path d="m633.49 214.57s12.122-25.254 9.0914-41.416-19.951-22.35-27.905-20.834c-7.955 1.5152-24.37 9.3439-23.865 17.173 0.50508 7.8287 8.8388 13.132 10.733 25.633 1.894 12.501-1.389 24.117-1.389 24.117z" fill="url(#bv)"/>
   <path d="m685.89 255.73c-19.422 10.76-53.286 25.001-61.998 25.254-8.7126 0.25254-13.511-6.6923-12.122-14.016 1.389-7.3236 5.4296-13.763 9.2176-15.784 3.7881-2.0203 38.765-13.511 43.31-16.036s11.617-5.5558 13.511-7.955 10.354-4.0406 14.142-1.0102c3.7881 3.0305 5.0508 8.8388 3.283 13.763-1.7678 4.9245-3.1928 12.376-9.3439 15.784z" fill="url(#bu)"/>
   <path d="m572.97 270.16c0.32973 3.3604 1.2913 6.2442 2.2188 8.8125-1.7132-0.81766-2.7778-2.1625-3.4375-3.4375-0.32702 2.0715-0.5 4.1932-0.5 6.3438 0 17.992 11.832 33.542 29.031 41 4.2218 1.0671 8.9923 1.5702 14.281 1.8125 11.696 0.53571 17.219-4.125 17.219-4.125-1.0636-3.0007-0.31711-7.809 2.5-11.062 0 0-3.0446 0.62054-7.6875-1.3438-4.6428-1.9643-7.9375-9.625-7.9375-9.625s-5.5268 3.3929-20.438 4.375c-14.911 0.98215-17.491-6.0848-17.938-8.4062 5.7143 5.0893 8.75 5.0089 18.75 5.1875s18.75-4.375 18.75-4.375-0.91071-4.5491 2.125-9.9062c0 0-7.2143-1.3571-10.875-9.125s0.52232-20.183 5.3438-25.719c-13.377 1.754-23.661 8.3912-41.406 19.594z" fill="url(#by)"/>
  </g>
  <g transform="matrix(1.0542 0 0 1.0542 -19.951 -26.289)">
   <path d="m163.09 454.38c-23.202 1.7111-45.001 11.654-65.111 22.57-26.343 15.606-45.262 41.225-55.743 69.842-12.171 29.673-20.864 63.059-13.146 95.025 7.2186 25.18 30.37 43.128 55.656 47.781 27.086 5.9434 55.524-1.9176 78.545-16.343 27.522-15.624 48.953-39.577 74.393-58.094 13.483-9.659 29.219-15.415 45.622-17.258 10.626-2.1011 21.242-4.2519 31.846-6.4604-8.1258-12.576-16.418-24.991-24.594-37.531-23.336 0.1756-49.325 1.2369-67.344 18.031-29.905 23.228-56.298 51.475-89.469 69.969-20.127 9.4189-48.974 0.7742-56.688-21.188-6.0287-24.947 2.1439-50.982 13.625-73.156 11.966-20.693 30.411-38.368 52.938-47 6.455-2.5035 15.207 0.75396 15.406 8.4688 0.7799 12.177-9.362 20.21-14.906 29.844-4.6493 8.0989 2.1362 16.992 9.7188 19.938 14.429 6.2166 31.07-1.2812 40.289-12.966 10.251-12.368 18.059-27.5 19.961-43.534 2.2551-22.633-15.826-43.408-37.75-47-4.3612-0.84392-8.8035-1.1489-13.25-0.9375z" stroke="#000" stroke-linejoin="round" stroke-width="5"/>
   <path d="m288.4 557.89s-34.598-0.75761-52.023 9.3439c-17.425 10.102-78.034 69.953-104.05 79.55-26.011 9.5964-53.538-6.0609-59.094-24.496-5.5558-18.435-1.0102-49.75 14.395-77.529 15.405-27.779 53.538-55.811 67.933-47.477 14.395 8.3338 4.7982 26.011-0.25254 33.082-5.0508 7.0711-14.395 13.89-4.0406 22.223 10.354 8.3338 26.769 4.2932 36.871-6.0609 10.102-10.354 28.284-38.891 19.951-60.357-8.3338-21.466-31.567-34.85-65.66-23.991s-67.68 27.022-88.388 68.185c-20.708 41.164-32.577 91.671-16.415 121.72 16.162 30.052 52.275 38.386 79.55 34.598 27.274-3.7881 58.589-22.981 91.166-52.78s49.75-35.355 62.124-37.628c12.374-2.2728 38.133-7.5762 38.133-7.5762z" fill="url(#bz)"/>
   <path d="m163.31 460.38c-18.946 1.1599-36.876 9.1221-53.793 17.149-26.259 12.787-46.63 35.628-57.849 62.413-12.894 29.181-23.253 61.702-18.137 93.951 3.5648 23.885 24.118 42.872 47.092 48.455 24.551 7.1463 51.102 1.903 73.007-10.565 25.649-13.418 46.617-33.767 68.432-52.338 15.915-13.138 34.325-24.175 55.179-26.485 9.3526-1.8492 18.701-3.7131 28.038-5.643-6.2186-9.0113-11.865-19.081-18.438-27.438-20.536 0.60913-43.323 1.5586-59.231 16.108-29.182 23.145-55.604 50.259-87.613 69.423-23.013 13.642-57.421 4.274-68.062-20.688-6.9705-22.786-0.77215-47.558 8-68.875 10.515-24.925 30.465-45.844 54.594-58.125 8.3079-4.2348 20.459-6.6691 26.969 1.9062 7.6046 9.4279 1.834 22.53-4.0625 31.25-2.7364 4.953-11.043 10.025-8.125 16.562 6.8671 10.432 22.36 8.9676 31.531 2.5 12.328-9.0572 20.209-23.358 25-37.438 4.8044-13.08 2.2104-28.422-7.5-38.562-8.7385-9.8804-22.141-14.177-35.031-13.562z" fill="url(#ca)"/>
  </g>
  <g transform="matrix(1.051 -.08091 .08091 1.051 -59.666 14.276)">
   <path d="m362.41 779.44-4.7295-176.01s10.893-22.321 22.321-26.786c11.429-4.4643 40.714 3.0357 40.714 3.0357s-6.4286 69.107-5.8929 92.5 7.5 88.75 7.5 88.75 45.179 22.857 55.357 28.036c10.179 5.1786 44.451 25.175 57.143 34.821 20.036 15.228 23.63 31.148 22.915 35.255-0.71428 4.1071-6.0714 5.3571-6.0714 5.3571s0.40469 7.9828-2.6258 11.266c-3.0305 3.283-8.7126 6.566-8.7126 6.566s-3.283 6.0609-7.1973 9.4702-7.955 6.3134-7.955 6.3134-1.894 16.794-18.94 21.718c-17.046 4.9245-30.431 6.6923-60.988-15.026-30.557-21.718-74.973-45.232-91.945-68.142-12.123-16.363-10.354-28.537-6.0609-37.881 4.2932-9.3439 15.168-19.248 15.168-19.248z" stroke="#000" stroke-linejoin="round" stroke-width="5"/>
   <path d="m361.89 606.38 4.2932 187.89s-3.1567-5.177-3.283-9.849c0 0-17.93 15.91-14.142 34.598 3.7881 18.688 38.004 44.705 68.562 63.393 30.557 18.688 45.709 35.103 73.741 36.113s31.315-21.718 31.567-30.052-4.5457-18.94-19.698-25.254c-15.152-6.3135-28.728-16.448-28.728-16.448s14.995 6.7978 24.183 10.766c12.641 5.4602 23.36 12.501 25.759 19.445 2.3991 6.9448 1.1364 16.289 1.1364 16.289s11.617-6.4397 12.374-14.647c0.75761-8.2075-5.3033-18.814-15.405-26.895-10.102-8.0812-14.081-8.6197-14.081-8.6197s21.335 5.0662 28.14 19.914c6.6755 14.563 3.3659 15.728 3.3659 15.728s9.7227-2.1466 9.3439-12.753c-0.3788-10.607-7.5761-18.056-12.501-21.845-4.9245-3.7881-9.9143-8.8722-9.9143-8.8722s8.6516 3.8215 14.081 8.9985c5.4296 5.177 8.1079 9.443 9.849 16.541 2.8571-0.89286 5.0508-1.0102 2.1466-10.733s-19.572-24.749-32.956-32.072-96.467-51.65-96.467-51.65v17.804c-3.1567-6.9448-10.102-71.342-11.49-103.41-1.389-32.072 5.3033-97.606 5.3033-97.606s-27.022-6.6923-35.608-2.2728c-8.5863 4.4194-19.572 25.506-19.572 25.506z" fill="url(#cl)"/>
   <path d="m440.29 833.3s25.357 12.857 41.071 23.214 33.214 12.679 35.893 26.607c2.6786 13.929-3.9286 29.107-17.857 31.786s-38.929-2.5-64.821-22.679-39.464-33.036-35.357-45.357c4.1071-12.321 41.071-13.571 41.071-13.571z" fill="url(#cm)"/>
  </g>
  <g transform="matrix(1.0542 0 0 1.0542 -19.951 -26.289)">
   <path d="m415.41 292.09c-13.674 1.9405-36.676 12.376-54.688 20.969 0 0 7.4955 31.076 4.2812 43.219s-19.286 28.228-55 44.656-47.496 26.08-46.781 46.438c0.71428 20.357 9.4987 63.902 9.4987 63.902-7.955 6.0609-8.9159 10.577-10.936 12.598-1.5152-4.2932-6.9688-5.7188-6.9688-5.7188s-4.192-12.214-14.281-11.5c-10.089 0.71428-19.371 6.7634-21.156 15.156-1.7857 8.3928 2.058 15.116 3.8438 18.688 1.7857 3.5714 6.3393 27.228 7.5 31.781 1.1607 4.5536 14.188 7.2188 14.188 7.2188s1.442 7.2277 6.5312 10.531c5.0893 3.3036 11.062 2.0625 11.062 2.0625s7.0536 5.9955 18.125 6.5312c11.071 0.53572 11.781 0.0625 11.781 0.0625s-27.242 83.722-37.344 114.53c-10.102 30.81-17.937 53.273-24.25 60.344-6.3135 7.0711-38.124 18.945-63.125 27.531-25.001 8.5863-63.129 24.491-68.938 31.562-5.8084 7.0711-12.965 20.846-10.188 29.938 2.7779 9.0914 6.125 9.7188 6.125 9.7188s0.89308 6.9396 5.3125 9.8438c4.4194 2.9042 13 6.3125 13 6.3125 2.1466 7.0711 17.062 11.875 17.062 11.875s4.671 19.976 24.125 28.531c18.598 8.1794 60.813-4.1224 76.781-26 30.427-41.686 55.652-42.831 69.219-74 7.6997-17.69 1.6206-39.833 5.5938-56.562 12.054-50.756 27.573-84.061 48.281-146.44 29.762-0.44241 63.742-23.785 77.312-42.406 8.7224-11.969 14.6-20.694 13.438-42.188-1.0411-19.256-4.3848-37.851-5.0312-57.562-0.88638-27.027 3.2-58.073 2.0312-85.344-0.83027-19.373-14.298-33.73-18.125-49.75-4.026-18.559-8.2812-56.531-8.2812-56.531zm-68.812 149.38-16.25 51.438-11.25-39.844c12.679-5.8929 27.5-11.594 27.5-11.594z" stroke="#000" stroke-linejoin="round" stroke-width="5"/>
   <path d="m411.79 297.01s4.2857 40 8.9286 56.071c4.6428 16.071 12.143 17.857 16.071 38.929 3.9286 21.071-0.71428 57.5-0.35714 91.429s8.9286 60.714 0.35714 83.571c-8.5714 22.857-49.286 48.214-64.643 52.143-15.357 3.9286-21.429 2.8571-21.429 2.8571s-44.286 125.71-48.214 143.21c-3.9286 17.5-3.2143 32.5-3.2143 44.286s-3.2143 27.143-30.714 48.214c-27.5 21.071-46.786 52.143-63.929 59.643s-44.643 18.571-62.5-2.8571c-17.857-21.429-2.8572-42.857 4.6428-47.143 7.5-4.2857 19.643-10 19.643-10s-22.411 1.875-30.268 16.429c-7.8571 14.554-6.5178 23.482-6.5178 23.482s-11.964-3.6607-13.75-11.339c-1.7857-7.6786 0.80357-15.089 5.0893-20 4.2857-4.9107 9.2857-11.786 9.2857-11.786s-12.5 7.8571-15.625 16.786-2.5 14.375-2.5 14.375-12.589-1.875-13.125-13.214c-0.53571-11.339 5.9821-20.089 10.268-23.661 4.2857-3.5714 9.8214-6.3393 9.8214-6.3393s-14.338 4.4351-20.179 15.982c-3.0103 5.9512-3.2819 7.9715-3.6607 11.696-2.2728-3.2199-7.0536-7.2322-3.75-17.054 3.3036-9.8214 5.5357-17.232 15.446-22.143 9.9107-4.9107 45.179-20.804 64.196-27.5 19.018-6.6964 54.732-17.143 63.125-27.5 8.3929-10.357 31.071-87.5 41.429-115 10.357-27.5 19.464-62.321 19.464-62.321s23.137 0.40195 38.571-22.143c15.893-23.214 14.939-39.801 9.6429-51.786-3.3929-7.6786-8.3929-14.286-11.429-25.714l18.75-58.214 31.25-10.179-18.571 0.35715-20-42.857s15-8.9286 20.357-18.036 7.3214-15.714 6.9643-20c-0.35715-4.2857-4.8214-32.857-4.8214-32.857 12.33-8.6415 22.215-10.96 45.893-19.821z" fill="url(#ck)"/>
   <path d="m288.21 564.59s-6.9625-27.683-21.964-27.411c-15.126 0.27421-21.493 11.244-20 14.821 5.7479 13.776 12.5 34.464 18.75 39.107s20.357 6.25 32.679 4.8214 33.75-13.929 41.786-36.964c8.0357-23.036 0-35-6.0714-48.214s-18.036-59.464-18.036-59.464 18.834-9.1234 28.661-12.143c10.743-3.3012 20-7.5 30.357-8.2143 10.357-0.71429 17.589-3.0357 17.589-3.0357s1.4286-23.393-6.6072-33.571c-8.0357-10.179-26.25-14.107-26.25-14.107s-7.5 3.0357-25.357 12.857-43.75 20.536-51.964 26.607c-8.2143 6.0714-17.321 19.464-14.107 37.321 3.2143 17.857 10.179 52.321 10.179 52.321s11.339-1.3393 16.786 3.2143c-5.3571-0.89286-17.679-3.2143-23.75 4.2857s-7.3214 10.536-7.3214 10.536l3.3929 7.5s9.8061-1.4196 15.61 10.723c0 0 0.0153-16.348 15.819-20.545 16.787-4.4577 25.714 6.7857 25.714 6.7857s-18.858-11.181-31.786 0c-6.6072 5.7143-7.3214 12.097-7.7679 16.65 5.0893 8.9286 3.6607 16.117 3.6607 16.117z" fill="#942917"/>
   <path d="m260.8 589.68c-8.6607-14.107-16.141-31.148-16.964-37.321-0.72146-5.4084 3.2143-10.804 9.0178-13.661 5.8036-2.8572 11.607-3.4822 11.607-3.4822s-4.1072-12.589-9.7322-14.286-19.643-0.71429-20.536 11.161 4.375 20.982 7.3214 29.643c2.9464 8.6607 5.5777 19.271 9.6428 24.018 4.4958 5.2502 5.693 4.402 9.6429 3.9286z" fill="#942917"/>
   <path d="m244.2 576.92s-4.8214-16.964-8.6607-25.625c-3.8393-8.6607-5.0893-17.857-3.3928-22.768 1.6964-4.9107 7.2321-9.6429 10.893-10.357 3.6607-0.71428 9.4643 0.26786 9.4643 0.26786s-3.4821-9.1071-11.071-9.5536c-7.5893-0.44643-19.554 7.6786-20.179 15.446-0.625 7.7678 5.2679 14.375 6.7857 20.804 1.5179 6.4286 4.9107 25.893 7.5 28.929 2.5893 3.0357 8.6607 2.8571 8.6607 2.8571z" fill="#942917"/>
   <path d="m411.64 318.23s1.0102 29.547 6.0609 38.891 14.142 24.496 15.405 35.355-1.0102 73.489-0.25253 94.197c0.75761 20.708 6.291 53.922 3.5355 67.175-5.3033 25.506-27.022 41.164-41.669 50.003-14.647 8.8388-37.376 15.405-44.952 13.89s-17.425-10.607-16.415-19.193 46.214-104.55 50.508-127.78c4.2932-23.234 1.5152-123.24 2.2728-133.34 0.75762-10.102 25.506-19.193 25.506-19.193z" fill="url(#cj)"/>
   <path transform="matrix(.98035 .19727 -.19727 .98035 119.95 -69.646)" d="m410.71 572.01c0 3.2545-1.519 5.8928-3.3929 5.8928s-3.3929-2.6383-3.3929-5.8928 1.519-5.8929 3.3929-5.8929 3.3929 2.6383 3.3929 5.8929z"/>
   <path d="m350.65 440.46-18.94 58.463s24.749 2.2728 38.765-17.173c14.016-19.445 11.238-51.518 11.238-51.518z" fill="url(#ci)"/>
   <path d="m361.07 380.04c-14.286 10.536-68.929 34.821-80.536 45.536-10.487 9.6806-10.714 27.321-8.2143 38.393 2.5 11.071 7.5 39.286 7.5 39.286l42.857-2.1429-10.357-50.357s38.75-19.286 51.071-20.893-3.6519-43.283-2.3214-49.821z" fill="url(#ch)"/>
   <path d="m284.72 511.5c-5.0184 6e-3 -10.397 1.0938-13.812 5.3125-6.0714 7.5-7.3438 10.562-7.3438 10.562l3.4062 7.5s9.7902-1.4241 15.594 10.719c0 0 0.0402-16.366 15.844-20.562 5.0581-1.3431 9.367-1.2394 12.969-0.46875l-17.125-12.094c-2.3506-0.39484-5.8237-0.9731-9.5312-0.96875z" fill="url(#cg)"/>
   <path d="m331.58 542.99s-8.8388-14.395-25.633-14.395c-16.794 0-19.698 19.572-19.698 19.572s2.1466 1.6415 3.1567 8.5863c1.0102 6.9448 2.0203 17.173 2.0203 17.173z" fill="url(#cf)"/>
   <path d="m288.27 568.75s-5.8084-21.971-16.541-28.032c-10.733-6.0609-24.749 5.8084-23.865 10.228 0.88389 4.4194 6.6923 14.9 9.0914 23.107 1.6636 5.6911 31.315-5.3033 31.315-5.3033z" fill="url(#ce)"/>
   <path d="m262.26 534.66s-2.6517-15.91-16.162-12.627c-13.511 3.283-10.733 13.763-10.102 18.309 0.63134 4.5457 4.4194 15.152 4.4194 15.152s1.1425-9.8344 7.1973-14.773c4.0966-3.3417 8.46-5.9346 14.647-6.0609z" fill="url(#cd)"/>
   <path d="m239.31 770.75c-4.9936 12.455-19.345 16.214-30.492 21.244-25.124 9.2436-50.839 17.041-75.124 28.538-10.602 5.3742-22.792 8.5942-32.041 16.186-5.4738 6.3346-8.5115 14.824-9.2188 22.938-0.04439 1.7153 1.6456 7.3056 2.25 3.0625 3.5705-11.162 13.591-19.803 24.75-22.506 7.5988-1.6885 0.47248 4.1429-2.5937 5.4125-10.773 5.4756-18.879 18.914-14.656 30.938 1.3798 2.783 5.6404 6.2167 7.9688 5.625 0.40464-10.723 5.9866-20.585 14.781-26.656 2.9298-2.5373 6.3723-4.1868 9.9375-5.7188-4.3872 11.443-18.315 18.531-17.531 31.844-0.51243 6.1918 5.0063 10.66 10.281 12.688 1.271-13.535 7.5052-28.353 20.719-33.969 7.4817-3.3455 15.692-5.7704 24-4.6562-10.266 8.2903-26.216 9.7703-32.594 22.469-7.9295 12.846-3.2521 30.119 8.0938 39.25 13.275 11.665 32.603 7.7482 47.375 1.6875 20.101-6.0081 31.978-24.64 46.188-38.875 10.989-12.554 24.471-22.586 36.969-33.438-20.32-50.63-24.43-66.038-39.062-76.062z" fill="url(#cc)"/>
   <path d="m234.64 875.58s-13.571 35-43.571 42.143c-30 7.1428-42.857 7.5-52.857-18.571s33.929-39.643 43.929-44.286c10-4.6428 37.857-4.6428 43.571 2.5 5.7143 7.1429 8.9286 18.214 8.9286 18.214z" fill="url(#cb)"/>
  </g>
  <path d="m247.99 155.31s-5.0581-11.913-15.773-12.179c-10.715-0.26622-25.423 4.2594-29.483 19.833-4.0598 15.574 4.5197 39.131 10.167 49.484 5.6472 10.353 15.248 23.907 15.248 23.907s-12.8 9.2238-10.165 28.613c2.6354 19.389 17.318 35.013 49.319 51.578s60.614 26.919 89.415 26.73c28.801-0.18824 42.919-14.306 47.437-18.259 4.5178-3.9531 15.248-14.683 15.248-14.683s20.518-12.424 31.248-28.424c10.73-16.001 13.177-26.354 13.177-26.354s38.59-19.577 53.461-34.26 28.989-45.931 31.248-63.061c2.2589-17.13-4.3296-43.107-22.589-46.496-18.259-3.3884-32.189-3.0119-43.107 1.6942-10.918 4.706-18.824 9.7886-18.824 9.7886s-3.0119-19.954-12.8-33.319c-9.7886-13.365-12.989-16.942-12.989-16.942s5.8355-12.236-7.5297-18.071c-13.365-5.8355-21.648 0.94121-21.648 0.94121s-12.236-3.9531-25.601-4.1413c-13.365-0.18824-26.354 5.0825-26.354 5.0825s-20.707-27.483-46.307-34.26c-25.601-6.7767-44.049-12.047-69.838 0.18824-25.789 12.236-43.107 36.331-40.472 58.355 2.6354 22.024 13.93 32.378 28.236 46.872s20.518 17.506 20.518 17.506c-1.8635 2.6621-1.2413 9.8762-1.2413 9.8762z" stroke="#000" stroke-linejoin="round" stroke-width="5.2708"/>
  <path d="m252.62 162.18s-7.7959-14.508 5.9458-25.614c13.742-11.106 25.491-10.716 30.197-9.3987 4.706 1.3177 11.483 8.2826 11.483 8.2826s-4.5178-12.047-15.059-12.612c-10.542-0.56472-15.436 3.3884-15.436 3.3884s5.0825-14.118 15.812-22.589c10.73-8.4709 12.424-8.4709 12.424-8.4709s8.1417 0.76797 12.8 4.8943c-3.0615-10.382-22.636-8.9253-28.36-7.3281 2.9284-3.8601 6.3034-7.1832 14.054-8.296 8.2503-1.1846 13.427-1.2971 22.213 6.0237l-5.459-7.5297c-0.53244-9.8499-13.93-19.389-13.93-19.389s19.389-10.353 32.001 3.3884c12.612 13.742 10.73 18.824 10.73 18.824s1.9281-3.297 0.99634-5.9591c5.4574-2.9284 21.593-1.3823 21.593-1.3823s16.377 22.401 29.554 37.084 33.838 36.12 33.838 36.12c-1.8635 1.3311-3.3427 5.6701-3.3427 5.6701s48.19-44.425 77.932-43.672c29.742 0.75297 36.895 9.0356 41.79 25.977s-13.553 64.755-29.366 79.062c-15.812 14.306-50.825 33.131-50.825 33.131s10.918-47.06-20.33-55.72c-31.248-8.6591-59.484 2.6354-59.484 2.6354s12.8-53.837-19.577-65.508-59.201 19.169-63.061 37.272c0 0-3.0765-21.887-20.275-23.774-15.91-1.745-28.856 15.491-28.856 15.491z" fill="#942917"/>
  <path d="m421.96 164.36s21.83-21.563 39.133-31.946c17.304-10.382 26.089-14.642 36.471-15.174 10.382-0.53242 27.642 0.48821 34.874 7.7202 5.0581 5.0581 10.231 11.986 9.8499 22.894-1.3311 38.069-46.321 24.492-63.359 26.355-33.697 1.668-43.794-6.2386-56.97-9.8499z" fill="url(#bq)"/>
  <path d="m357.35 59.203c14.72 34.203 72.593 89.804 72.593 89.804l10.165-9.0356c-27.045-16.869-82.759-80.768-82.759-80.768z" fill="url(#bp)"/>
  <path d="m253.45 222.66c-5.9898-2.6621-12.664-40.678-1.5973-55.905 11.548-15.888 27.42-18.901 34.874-15.707 11.246 4.8199 12.911 20.232 14.109 28.485 8.5188-29.017 27.021-42.594 43.26-45.256 17.036-2.7927 29.264 3.2027 34.874 16.771 5.6858 13.751 6.3891 25.29 2.2628 48.983-15.973 7.0547-27.261 15.445-37.09 22.878-13.311 1.5973-18.815 0.28237-18.815 0.28237s-17.038-20.765-40.731-15.973c-19.75 3.9944-31.147 15.44-31.147 15.44z" fill="#fff"/>
  <path d="m242.93 191.93c-0.94121-18.354 7.0591-26.354 7.0591-26.354s-6.0237-18.636-17.883-19.389c-11.859-0.75296-31.248 7.1532-26.919 33.131 4.3296 25.977 19.671 49.508 25.413 55.343 9.0356-7.2473 19.201-6.212 19.201-6.212l2.8236-3.5766c-6.6355-4.2354-8.5179-22.73-9.6003-27.248 0 0-3.3884-13.695-12.989-19.53-9.6003-5.8355-13.742 0.84709-13.742 0.84709s4.3296-8.2826 12.612-4.8943c8.2826 3.3884 11.389 12.047 14.024 17.883z" fill="url(#bo)"/>
  <path d="m475.21 157.3s10.782 8.1195 9.3175 13.843c-1.4642 5.7236-1.7304 13.71-6.5222 20.099-4.7918 6.3891-9.4506 12.246-9.4506 12.246s35.673-1.7304 42.328-10.116c6.6554-8.3857 13.444-29.284 13.843-34.208 0.39931-4.925-1.3311-13.044-7.7202-13.71-6.3891-0.66554-23.161 0-32.079 4.7918-8.9182 4.7918-9.7168 7.0547-9.7168 7.0547z" fill="url(#bn)"/>
  <path d="m440.68 179.31s10.353-19.389 43.86-31.06 39.322-3.3102 41.225 3.7648c2.5234 9.3844-5.2708 21.46-5.2708 21.46s4.3296-15.812 1.1294-21.46c-3.2001-5.6473-19.389-7.3414-42.543 3.0119 0 0 7.8501 6.357 7.5297 15.436-0.56473 16.001-13.742 27.483-13.742 27.483s9.6003-14.871 8.4709-24.095c-1.1294-9.2238-10.542-14.871-10.542-14.871-11.483 4.8943-30.119 20.33-30.119 20.33z"/>
  <path d="m250.55 235.79s1.5059-6.7767 6.0237-11.859c4.5178-5.0825 20.505-14.262 33.884-14.306 14.778-0.0488 22.965 5.0825 28.989 12.612 6.0237 7.5297 7.812 12.989 7.812 12.989s-0.18825-5.5531-1.4118-8.6591c5.0825 1.4118 17.13-0.37648 17.13-0.37648l-1.5059 6.212c8.1885-11.765 27.483-25.036 42.731-29.554s33.507-10.165 53.084-5.0825 23.154 17.13 23.718 28.424c0.56473 11.294 2.8236 27.107-9.0356 47.249-11.859 20.142-36.331 35.578-36.331 35.578s-24.66 27.672-44.802 30.307c-20.142 2.6354-58.543-3.9531-88.474-18.824-29.93-14.871-50.825-28.236-58.167-46.307-7.3414-18.071-0.18824-30.119 5.8355-35.389 6.0237-5.2708 10.447-6.8708 19.012-7.9062z" fill="#eab16c"/>
  <path d="m251.87 240.12c1.1065-14.057 19.201-26.919 33.695-28.048 21.81-1.6994 31.813 10.73 35.389 17.883 3.5766 7.1532 2.4471 21.836-8.4709 26.542s-42.166 7.5297-52.519 0.94121c-10.353-6.5885-8.597-10.933-8.0944-17.318z" fill="url(#bm)"/>
  <path d="m258.36 237.39s0.4706-5.2708 3.9531-5.2708 3.106 14.024 3.106 14.024-2.4471-10.165-4.1413-10.447c-1.6942-0.28235-2.9177 1.6942-2.9177 1.6942z"/>
  <path d="m300.91 229.95c6.5885 0.75296 3.7648 8.9415 3.7648 8.9415s-0.56473-4.706-4.3296-4.8002c-3.7648-0.0941-10.259 4.8943-16.377 11.577 2.6507-7.526 8.7021-16.264 16.942-15.718z"/>
  <path d="m333.58 261.53c1.0059-11.687 8.5188-31.413 30.881-45.789 22.362-14.376 47.259-17.287 59.898-16.771 13.044 0.53243 25.823 5.5905 30.082 13.843 4.2472 8.2289 5.0581 30.348 1.0649 44.458-3.9932 14.109-21.83 32.744-31.946 39.932-10.116 7.1878-55.905 7.1878-70.28-5.0581s-20.899-16.686-19.7-30.615z" fill="url(#bl)"/>
  <path d="m241.23 267.32c11.447 7.5871 20.895 9.7886 20.895 9.7886s20.605 33.936 51.22 45.916 53.243 9.3175 64.158 4.2594 30.881-15.44 38.069-42.86c7.1878-27.42 6.9216-58.301 6.9216-58.301 4.4237 0.56472 8.1195 3.3942 11.248 7.5871-0.46588-3.6604-3.6204-12.796-20.033-14.509-17.963-1.8746-25.29 3.128-26.954 8.9847 4.7253-3.3277 11.896-5.2605 18.702-4.7253 0 0-19.434 37.802-70.28 46.321-50.847 8.5188-73.675 9.0513-92.642-5.0581 0 0 1.93-4.1929 8.5188-6.9216-2.5956-0.33276-5.9232-0.9983-11.78 5.657-5.5688 6.3281-3.0614 11.647-1.4642 14.509 0.59899-7.454 2.2923-8.4516 3.4237-10.648z"/>
  <path d="m266.36 278.33s11.859 19.577 30.683 32.001 33.884 15.248 33.884 15.248 0.37649-14.683 14.871-28.801c14.495-14.118 23.587-14.044 29.177-12.047 0 0 8.5944-9.2654 19.201-8.6591 13.736 0.78526 17.429 11.437 17.429 11.437 3.4608-14.775 8.007-30.106 7.6076-62.451 0 0-4.7077-1.795-9.8323-1.3957 0 0-18.824 42.166-76.05 50.449-50.377 7.2914-66.97 4.2193-66.97 4.2193z" fill="url(#bk)"/>
  <path d="m333.58 326.22s21.43 6.256 38.202 0.53244c16.771-5.7236 31.546-19.034 38.867-34.741 0 0-2.3863-13.023-16.505-12.911-16.905 0.13311-30.748 25.024-30.748 25.024s4.3925-11.847 9.4506-17.437c-4.925-0.13311-13.66-1.4564-28.485 15.84-9.5837 11.181-10.782 23.693-10.782 23.693z" fill="#f00"/>
  <path d="m315.88 128.15c3.3277-9.3175 17.172-21.598 35.673-21.963 20.232-0.39932 26.355 5.7236 29.949 15.041-6.7884-4.925-13.531-13.02-31.147-10.382-19.284 2.8876-22.571 7.473-34.475 17.304z"/>
  <path d="m253.18 220.53s-10.782-26.754-3.4608-44.724c7.3209-17.969 25.157-24.891 31.813-23.693s13.843 6.7884 15.307 15.973c1.4642 9.1844 3.727 15.973-1.3311 23.427s-19.301 17.171-24.758 19.567c-5.4574 2.3959-17.57 9.4506-17.57 9.4506z" fill="url(#bj)"/>
  <path transform="matrix(1.0542 0 0 1.1554 -18.886 -48.45)" d="m301.03 207.69a14.205 15.089 0 1 1 -28.411 0 14.205 15.089 0 1 1 28.411 0z"/>
  <path d="m305.14 207.36c0-1.1294-6.5885-17.13 0-34.26s23.718-37.46 46.684-37.084c22.966 0.3765 27.107 20.707 28.989 31.625 1.8824 10.918-3.2001 32.001-3.2001 32.001s-27.107 16.565-41.225 16.565-31.248-8.8474-31.248-8.8474z" fill="url(#bi)"/>
  <path transform="matrix(1.4158 0 0 1.5444 -55.917 -132.22)" d="m301.03 207.69a14.205 15.089 0 1 1 -28.411 0 14.205 15.089 0 1 1 28.411 0z"/>
  <path transform="matrix(.89148 0 0 .97712 27.771 -11.42)" d="m301.03 207.69a14.205 15.089 0 1 1 -28.411 0 14.205 15.089 0 1 1 28.411 0z" fill="url(#br)"/>
  <path transform="matrix(1.1802 0 0 1.3201 11.634 -85.651)" d="m301.03 207.69a14.205 15.089 0 1 1 -28.411 0 14.205 15.089 0 1 1 28.411 0z" fill="url(#bs)"/>
  <path transform="matrix(.65592 0 0 .75594 157.63 24.467)" d="m301.03 207.69a14.205 15.089 0 1 1 -28.411 0 14.205 15.089 0 1 1 28.411 0z" fill="#fff"/>
  <path transform="matrix(.51192 0 0 .5611 132.38 69.924)" d="m301.03 207.69a14.205 15.089 0 1 1 -28.411 0 14.205 15.089 0 1 1 28.411 0z" fill="#fff"/>
  <path d="m250.12 142.53c3.4608-8.9182 13.843-13.311 13.843-13.311 4.2594-19.966 25.69-34.475 25.69-34.475s-8.2526-0.13311-15.574 1.5973c17.038-23.294 36.205-13.71 36.205-13.71-2.3959-8.652-15.973-19.301-15.973-19.301 4.7919-4.5256 21.813-12.026 35.273-3.1946 9.1317 5.9915 13.044 17.304 13.044 17.304 9.1844-4.6587 19.966-1.198 19.966-1.198s-16.505-41.263-58.833-52.71-71.612-0.39932-91.045 28.352c-19.434 28.751-0.39932 53.642 4.3925 58.7 4.7919 5.0581 25.423 27.819 33.011 31.946z" fill="url(#bh)"/>
  <path d="m361.93 59.469 59.366 62.427s12.668-37.181-4.5256-58.168c-9.0513-11.048-50.181-10.116-54.84-4.2594z" fill="url(#bg)"/>
  <path d="m423.43 123.63c7.7202 8.1195 19.567 14.908 19.567 14.908 9.1844-7.7202 18.103-13.044 18.103-13.044s-4.3925-40.864-39-59.499c14.908 26.355 1.3311 57.635 1.3311 57.635z" fill="url(#bf)"/>
  <path d="m411.98 57.339s14.908 6.5222 22.761 14.242c0 0 3.8601-7.8533-3.8601-13.178-7.7202-5.3243-13.843-4.2594-18.901-1.0649z" fill="url(#be)"/>
  <path d="m393.54 281.23c-13.668 1.5517-21.884 14.406-29.117 24.651-4.5479 6.5585-3.6006-2.4646-1.8016-5.4945 1.6348-3.9984 3.8466-8.1171 5.8822-11.613-12.268 1.8081-21.157 12.38-27.507 22.236-2.2274 4.2124-4.5078 9.1928-4.8425 13.704 16.577 4.1938 35.264 3.2982 49.446-7.1814 9.6115-6.5263 18.384-15.48 22.697-26.189-1.776-6.3285-8.1169-10.797-14.758-10.113z" fill="url(#bd)"/>
  <path d="m244.27 163.16s0.93175-9.3175-9.0513-13.577c-9.983-4.2594-21.297 3.4608-24.492 8.2526-3.1946 4.7918-5.3243 11.447-4.1263 18.768 1.198 7.3209 2.9284 15.973 5.5905 20.498 2.6621 4.5256 3.8601 4.2594 5.8567 3.9932 1.9966-0.26621-2.9284-19.833-1.5973-22.495 1.3311-2.6621 4.2594-6.256 9.1844-6.3891s8.652 3.3277 12.778 1.198c4.1263-2.1297 5.8567-10.249 5.8567-10.249z" fill="url(#bc)"/>
  <path d="m252.79 158.9s-3.3277-6.9216 1.8635-15.84c5.1912-8.9182 22.362-14.642 28.352-14.908 5.9898-0.26621 13.843 5.3243 16.106 8.2526 2.2628 2.9284 0.1331 10.382-4.6588 11.048-4.7919 0.66554-10.782-3.4608-17.437-1.9966-6.6554 1.4642-13.311 2.6621-16.905 6.7885-1.473 2.2647-4.7748 4.5651-7.3209 6.6553z" fill="url(#bb)"/>
  <path d="m314.01 134.54s9.0513-13.444 20.765-18.236c11.713-4.7919 20.498-4.925 26.888-3.727 6.3891 1.198 14.642 5.4574 19.167 10.382 4.5256 4.925 11.713 16.372 10.382 22.229-1.3311 5.8567-6.7884 7.3209-6.7884 7.3209s-5.1912-19.966-23.161-22.096c-17.969-2.1297-30.348 0.1331-40.065 8.7851-9.7168 8.652-12.645 6.6554-12.645 6.6554z" fill="url(#ba)"/>
  <path d="m302.7 63.545c4.8943-1.3177 14.683-3.0119 19.389-0.18824 8.0966 4.8579 13.438 9.7812 16.942 18.448 3.5766 8.8474 1.6942 15.436 1.6942 15.436l-18.071-1.3177s-2.6354-6.9649-4.706-9.4121c-2.0706-2.4471-2.2589-4.1413-2.2589-4.1413s-4.3296-13.742-12.989-18.824z" fill="url(#az)"/>
  <path d="m284.8 91.415s4.6588-4.9915 13.377-5.9898c8.7185-0.99829 14.575 1.5973 18.835 5.0581 4.2594 3.4608 5.3908 8.5188 3.1946 10.848-2.1963 2.3294-7.7202 0.39932-8.4523-1.6638-0.73209-2.0632-0.86442-5.9325-9.7168-8.2526-5.482-1.4368-11.755-1.5079-17.237 0z" fill="url(#cn)"/>
 </g>
</svg>
