<svg width="750" height="850" xmlns="http://www.w3.org/2000/svg" xmlns:xlink="http://www.w3.org/1999/xlink">
 <defs>
  <linearGradient id="aw">
   <stop stop-color="#bdf3f5" offset="0"/>
   <stop stop-color="#fff" offset="1"/>
  </linearGradient>
  <linearGradient id="a">
   <stop stop-color="#de8a2c" offset="0"/>
   <stop stop-color="#de8a2c" stop-opacity="0" offset="1"/>
  </linearGradient>
  <linearGradient id="b">
   <stop stop-color="#942917" offset="0"/>
   <stop stop-color="#671d10" offset="1"/>
  </linearGradient>
  <linearGradient id="ay">
   <stop stop-color="#fefbf6" offset="0"/>
   <stop stop-color="#f5e2bb" stop-opacity="0" offset="1"/>
  </linearGradient>
  <linearGradient id="av">
   <stop stop-color="#13dc00" offset="0"/>
   <stop stop-color="#b8ff3c" offset="1"/>
  </linearGradient>
  <linearGradient id="ax">
   <stop stop-color="#00f" offset="0"/>
   <stop offset="1"/>
  </linearGradient>
  <linearGradient id="br" x1="0.40762" x2="0.78424" y1="0.44367" y2="0.92745" xlink:href="#ax"/>
  <linearGradient id="bs" x1="0.40023" x2="0.80888" y1="0.41849" y2="0.9016" xlink:href="#ax"/>
  <linearGradient id="bt" x1="0.21852" x2="0.14463" y1="0.85248" y2="0.86612" xlink:href="#b"/>
  <linearGradient id="bu" x1="0.03749" x2="0.33197" y1="0.15558" y2="0.66556" xlink:href="#a"/>
  <linearGradient id="bv" x1="0.01932" x2="0.69565" y1="-0.08308" y2="0.48867" xlink:href="#a"/>
  <linearGradient id="bw" x1="0.53097" x2="0.45103" y1="0.5584" y2="0.32475" xlink:href="#b"/>
  <linearGradient id="bx" x1="0.41472" x2="0.33317" y1="0.71431" y2="0.48022" xlink:href="#b"/>
  <linearGradient id="by" x1="0.57462" x2="0.91524" y1="0.5484" y2="0.66408" xlink:href="#b"/>
  <linearGradient id="bz" x1="0.58475" x2="0.7743" y1="0.51562" y2="0.58106" xlink:href="#b"/>
  <linearGradient id="ca" x1="0.20346" x2="0.38041" y1="0.1188" y2="0.36097" xlink:href="#a"/>
  <linearGradient id="cb" x1="-0.23496" x2="0.38865" y1="0.11864" y2="0.4999" xlink:href="#a"/>
  <linearGradient id="cc" x1="0.31498" x2="0.49487" y1="0.06446" y2="0.34435" xlink:href="#a"/>
  <linearGradient id="cd" x1="0.32858" x2="0.60116" y1="-0.38625" y2="0.38084" xlink:href="#a"/>
  <linearGradient id="ce" x1="0.56534" x2="0.38485" y1="-0.37153" y2="0.53441" xlink:href="#a"/>
  <linearGradient id="cf" x1="0.1004" x2="0.41232" y1="-0.26042" y2="0.45829" xlink:href="#a"/>
  <linearGradient id="cg" x1="0.41988" x2="0.33455" y1="0.24814" y2="0.65174" xlink:href="#b"/>
  <linearGradient id="ch" x1="-0.06988" x2="0.38571" y1="0.25654" y2="0.52031" xlink:href="#a"/>
  <linearGradient id="ci" x1="0.74402" x2="0.32114" y1="0.42659" y2="0.18057" xlink:href="#b"/>
  <linearGradient id="cj" x1="1.28649" x2="0.72483" y1="0.52384" y2="0.50239" xlink:href="#a"/>
  <linearGradient id="ck" x1="0.87402" x2="0.84998" y1="0.11677" y2="0.07348" xlink:href="#b"/>
  <linearGradient id="cl" x1="0.23559" x2="0.21163" y1="0.25912" y2="0.10425" xlink:href="#b"/>
  <linearGradient id="cm" x1="1.17905" x2="0.70077" y1="0.19172" y2="0.68236" xlink:href="#a"/>
  <linearGradient id="cn" x1="0.12787" x2="0.73409" y1="0.16712" y2="0.38427" xlink:href="#a"/>
  <linearGradient id="az" x1="0.33354" x2="0.53989" y1="-0.1005" y2="0.6756" xlink:href="#a"/>
  <linearGradient id="ba" x1="0.4303" x2="0.47473" y1="-0.2702" y2="0.38887" xlink:href="#a"/>
  <linearGradient id="bb" x1="0.27006" x2="0.48864" y1="-0.36887" y2="0.50035" xlink:href="#a"/>
  <linearGradient id="bc" x1="0.14711" x2="0.64329" y1="-0.02843" y2="0.34401" xlink:href="#a"/>
  <linearGradient id="bd" x1="0.49337" x2="0.64286" y1="0.10238" y2="0.66033">
   <stop stop-color="#f5e2bb" offset="0"/>
   <stop stop-color="#f5e2bb" stop-opacity="0" offset="1"/>
  </linearGradient>
  <linearGradient id="be" x1="0.74673" x2="0.15978" y1="0.47803" y2="0.12171" xlink:href="#av"/>
  <linearGradient id="bf" x1="0.51213" x2="0.11235" y1="0.86336" y2="0.07965" xlink:href="#av"/>
  <linearGradient id="bg" x1="0.11824" x2="0.55817" y1="0.09932" y2="0.24042" xlink:href="#aw"/>
  <linearGradient id="bh" x1="0.24007" x2="0.55338" y1="0.14625" y2="0.50616">
   <stop stop-color="#13dc00" offset="0"/>
   <stop stop-color="#08b100" offset="1"/>
  </linearGradient>
  <linearGradient id="bi" x1="0.06498" x2="0.44707" y1="0.20434" y2="0.60816" xlink:href="#aw"/>
  <linearGradient id="bj" x1="0.07542" x2="0.59412" y1="0.24567" y2="0.46513" xlink:href="#aw"/>
  <linearGradient id="bk" x1="0.35478" x2="0.75391" y1="0.69579" y2="0.43362">
   <stop stop-color="#800000" offset="0"/>
   <stop stop-color="#410000" offset="1"/>
  </linearGradient>
  <linearGradient id="bl" x1="0.62161" x2="0.62212" y1="-0.05217" y2="0.4149" xlink:href="#ay"/>
  <linearGradient id="bm" x1="0.49939" x2="0.51417" y1="0.0466" y2="0.49258" xlink:href="#ay"/>
  <linearGradient id="bn" x1="0.38399" x2="0.17644" y1="0.66477" y2="0.18936" xlink:href="#b"/>
  <linearGradient id="bo" x1="0.21178" x2="0.74945" y1="0.50002" y2="0.59791" xlink:href="#b"/>
  <linearGradient id="bp" x1="0.73268" x2="0.0722" y1="0.79359" y2="0.11016" xlink:href="#av"/>
  <linearGradient id="bq" x1="0.70812" x2="0.74141" y1="-0.14286" y2="0.61486" xlink:href="#a"/>
 </defs>
 <g>
  <title>background</title>
  <rect x="-1" y="-1" width="752" height="852" id="canvas_background" fill="#99cc99"/>
 </g>
 <g>
  <title>Layer 1</title>
  <g stroke="null" id="svg_1">
   <g stroke="null" transform="matrix(0.7055207803642131,0,0,0.8397028852483276,-60.828110104966754,-109.07076663295629) " id="svg_2">
    <path stroke="#000" d="m868.015136,339.962695c-13.913,0.47127 -30.356,6.8438 -34.719,21.25c-1.8417,11.477 9.621,19.322 10.125,30.375c3.2078,15.718 -2.4742,32.125 -13.594,43.531c-6.3023,8.0538 -11.99,17.598 -11.656,28.188c-50.918,31.83 -100.58,67.614 -157.66,87.406c-4.2628,1.4347 -8.514,2.7973 -12.875,3.9688c8.4211,18.025 16.804,36.068 25.156,54.125c56.776,-29.69 113.36,-60.095 170.19,-89.469c12.113,4.3651 26.949,6.2407 38.656,0.0625c6.7057,9.7548 20.954,7.7105 30.156,2.875c16.665,-6.8694 36.722,-12.419 45.812,-29.469c3.9714,-7.7781 2.6875,-17.598 -1.7812,-24.5c3.7145,-8.1908 1.8702,-18.427 -2.9375,-25.188c7.134,-10.475 5.3416,-27.28 -6.6562,-33.469c-14.501,-9.2926 -33.228,-9.9967 -49.25,-4.2201c-5.396,2.4703 -4.9606,-0.27845 -2.8757,-4.5004c5.5095,-15.784 8.8252,-35.3 -1.0932,-50.061c-5.8366,-7.5904 -15.624,-11.185 -25,-10.906l0.0028,0.0012z" stroke-linejoin="round" stroke-width="5" id="svg_3"/>
    <path stroke="null" d="m653.255136,557.242695s38.929,-10.357 94.286,-44.643s72.5,-45.714 72.5,-45.714s0.53571,4.7321 4.4643,6.6071c-2.3214,-6.4286 -4.9107,-14.732 2.9464,-27.946s20.536,-20.982 20.714,-43.839s-10.357,-28.482 -11.161,-36.786c-0.80357,-8.3036 9.7322,-17.143 22.946,-20c13.214,-2.8571 24.464,0.80358 30.357,9.0179c5.8929,8.2143 5.7143,22.768 3.8393,32.232c-1.875,9.4643 -8.3929,25.446 -8.3929,25.446s6.6072,4.0179 8.75,9.1072c2.1429,5.0893 1.25,10.893 1.25,10.893s-27.232,7.9464 -32.054,13.482c-4.8214,5.5357 -9.0179,17.946 -5.3571,25.714c3.6607,7.7679 10.893,9.1071 10.893,9.1071c-3.0357,5.3571 -2.1429,9.9107 -2.1429,9.9107s-8.75,4.5536 -18.75,4.375s-13.036,-0.0893 -18.75,-5.1786c0.44643,2.3214 3.0357,9.375 17.946,8.3928c14.911,-0.98214 20.446,-4.375 20.446,-4.375s3.3036,7.6786 7.9464,9.6429c4.6429,1.9643 7.6786,1.3393 7.6786,1.3393c-2.8171,3.2535 -3.5636,8.0708 -2.5,11.071c0,0 -5.5357,4.6428 -17.232,4.1071c-11.696,-0.53572 -20.804,-2.3214 -27.232,-8.75c0.44643,4.1071 2.5893,6.0714 2.5893,6.0714l-164.55,86.786l-21.4304,-46.0709z" fill="url(#bt)" id="svg_4"/>
    <path stroke="null" d="m889.775136,411.082695c1.4286,1.3393 3.75,2.6786 5,9.2857c1.25,6.6072 0.26786,11.429 0.26786,11.429l28.661,-10.357c-18.75,11.696 -51.429,18.571 -57.143,24.464c-4.417,4.555 -9.2857,14.911 -6.6071,22.768c2.6786,7.8572 8.9286,9.375 12.5,9.2857s66.339,-20.714 75.893,-35.268s4.0179,-26.607 -8.2143,-31.964c-12.232,-5.3572 -24.286,-6.3393 -33.571,-3.6607c-9.2857,2.6786 -16.786,4.0179 -16.786,4.0179l-0.00046,-0.0006z" fill="#942917" id="svg_5"/>
    <path stroke="null" d="m949.145136,445.632695s-3.3929,5.2679 -14.018,10.446s-13.839,6.4286 -29.464,12.768c-15.625,6.3393 -33.571,11.071 -33.571,11.071s-3.8393,5.1786 -2.0536,10.625s5.1786,10.804 10.357,11.25c5.1786,0.44643 27.232,-3.2143 43.571,-12.143c16.339,-8.9286 28.825,-15.435 29.732,-29.821c0.625,-9.9107 -4.5536,-14.196 -4.5536,-14.196l0.0002,0z" fill="url(#bw)" id="svg_6"/>
    <path stroke="null" d="m952.535136,471.702695s4.9107,4.4643 3.125,14.375s-14.464,20.893 -29.464,26.071s-28.299,14.554 -38.036,8.0357c-10.536,-7.0536 -1.7857,-16.161 -1.7857,-16.161s10.893,-1.1607 24.286,-6.25s28.008,-13.616 36.071,-19.821c4.193,-3.2268 5.8036,-6.25 5.8036,-6.25l0.0001,0.0003z" fill="url(#bx)" id="svg_7"/>
    <path stroke="null" d="m882.815136,409.092695s12.122,-25.254 9.0914,-41.416s-19.951,-22.35 -27.905,-20.834c-7.955,1.5152 -24.37,9.3439 -23.865,17.173c0.50508,7.8287 8.8388,13.132 10.733,25.633c1.894,12.501 -1.389,24.117 -1.389,24.117l33.3346,-4.673z" fill="url(#bv)" id="svg_8"/>
    <path stroke="null" d="m935.215136,450.252695c-19.422,10.76 -53.286,25.001 -61.998,25.254c-8.7126,0.25254 -13.511,-6.6923 -12.122,-14.016c1.389,-7.3236 5.4296,-13.763 9.2176,-15.784c3.7881,-2.0203 38.765,-13.511 43.31,-16.036s11.617,-5.5558 13.511,-7.955s10.354,-4.0406 14.142,-1.0102c3.7881,3.0305 5.0508,8.8388 3.283,13.763c-1.7678,4.9245 -3.1928,12.376 -9.3439,15.784l0.0003,0.0002z" fill="url(#bu)" id="svg_9"/>
    <path stroke="null" d="m822.295136,464.682695c0.32973,3.3604 1.2913,6.2442 2.2188,8.8125c-1.7132,-0.81766 -2.7778,-2.1625 -3.4375,-3.4375c-0.32702,2.0715 -0.5,4.1932 -0.5,6.3438c0,17.992 11.832,33.542 29.031,41c4.2218,1.0671 8.9923,1.5702 14.281,1.8125c11.696,0.53571 17.219,-4.125 17.219,-4.125c-1.0636,-3.0007 -0.31711,-7.809 2.5,-11.062c0,0 -3.0446,0.62054 -7.6875,-1.3438c-4.6428,-1.9643 -7.9375,-9.625 -7.9375,-9.625s-5.5268,3.3929 -20.438,4.375c-14.911,0.98215 -17.491,-6.0848 -17.938,-8.4062c5.7143,5.0893 8.75,5.0089 18.75,5.1875s18.75,-4.375 18.75,-4.375s-0.91071,-4.5491 2.125,-9.9062c0,0 -7.2143,-1.3571 -10.875,-9.125s0.52232,-20.183 5.3438,-25.719c-13.377,1.754 -23.661,8.3912 -41.406,19.594l0.0009,-0.0006z" fill="url(#by)" id="svg_10"/>
   </g>
   <g stroke="null" transform="matrix(0.7055207803642131,0,0,0.8397028852483276,-60.828110104966754,-109.07076663295629) " id="svg_11">
    <path stroke="#000" d="m412.415136,648.902695c-23.202,1.7111 -45.001,11.654 -65.111,22.57c-26.343,15.606 -45.262,41.225 -55.743,69.842c-12.171,29.673 -20.864,63.059 -13.146,95.025c7.2186,25.18 30.37,43.128 55.656,47.781c27.086,5.9434 55.524,-1.9176 78.545,-16.343c27.522,-15.624 48.953,-39.577 74.393,-58.094c13.483,-9.659 29.219,-15.415 45.622,-17.258c10.626,-2.1011 21.242,-4.2519 31.846,-6.4604c-8.1258,-12.576 -16.418,-24.991 -24.594,-37.531c-23.336,0.1756 -49.325,1.2369 -67.344,18.031c-29.905,23.228 -56.298,51.475 -89.469,69.969c-20.127,9.4189 -48.974,0.7742 -56.688,-21.188c-6.0287,-24.947 2.1439,-50.982 13.625,-73.156c11.966,-20.693 30.411,-38.368 52.938,-47c6.455,-2.5035 15.207,0.75396 15.406,8.4688c0.7799,12.177 -9.362,20.21 -14.906,29.844c-4.6493,8.0989 2.1362,16.992 9.7188,19.938c14.429,6.2166 31.07,-1.2812 40.289,-12.966c10.251,-12.368 18.059,-27.5 19.961,-43.534c2.2551,-22.633 -15.826,-43.408 -37.75,-47c-4.3612,-0.84392 -8.8035,-1.1489 -13.25,-0.9375l0.0012,-0.0009z" stroke-linejoin="round" stroke-width="5" id="svg_12"/>
    <path stroke="null" d="m537.725136,752.412695s-34.598,-0.75761 -52.023,9.3439c-17.425,10.102 -78.034,69.953 -104.05,79.55c-26.011,9.5964 -53.538,-6.0609 -59.094,-24.496c-5.5558,-18.435 -1.0102,-49.75 14.395,-77.529c15.405,-27.779 53.538,-55.811 67.933,-47.477c14.395,8.3338 4.7982,26.011 -0.25254,33.082c-5.0508,7.0711 -14.395,13.89 -4.0406,22.223c10.354,8.3338 26.769,4.2932 36.871,-6.0609c10.102,-10.354 28.284,-38.891 19.951,-60.357c-8.3338,-21.466 -31.567,-34.85 -65.66,-23.991s-67.68,27.022 -88.388,68.185c-20.708,41.164 -32.577,91.671 -16.415,121.72c16.162,30.052 52.275,38.386 79.55,34.598c27.274,-3.7881 58.589,-22.981 91.166,-52.78s49.75,-35.355 62.124,-37.628c12.374,-2.2728 38.133,-7.5762 38.133,-7.5762l-20.19986,-30.8068z" fill="url(#bz)" id="svg_13"/>
    <path stroke="null" d="m412.635136,654.902695c-18.946,1.1599 -36.876,9.1221 -53.793,17.149c-26.259,12.787 -46.63,35.628 -57.849,62.413c-12.894,29.181 -23.253,61.702 -18.137,93.951c3.5648,23.885 24.118,42.872 47.092,48.455c24.551,7.1463 51.102,1.903 73.007,-10.565c25.649,-13.418 46.617,-33.767 68.432,-52.338c15.915,-13.138 34.325,-24.175 55.179,-26.485c9.3526,-1.8492 18.701,-3.7131 28.038,-5.643c-6.2186,-9.0113 -11.865,-19.081 -18.438,-27.438c-20.536,0.60913 -43.323,1.5586 -59.231,16.108c-29.182,23.145 -55.604,50.259 -87.613,69.423c-23.013,13.642 -57.421,4.274 -68.062,-20.688c-6.9705,-22.786 -0.77215,-47.558 8,-68.875c10.515,-24.925 30.465,-45.844 54.594,-58.125c8.3079,-4.2348 20.459,-6.6691 26.969,1.9062c7.6046,9.4279 1.834,22.53 -4.0625,31.25c-2.7364,4.953 -11.043,10.025 -8.125,16.562c6.8671,10.432 22.36,8.9676 31.531,2.5c12.328,-9.0572 20.209,-23.358 25,-37.438c4.8044,-13.08 2.2104,-28.422 -7.5,-38.562c-8.7385,-9.8804 -22.141,-14.177 -35.031,-13.562l-0.0005,0.0018z" fill="url(#ca)" id="svg_14"/>
   </g>
   <g stroke="null" transform="matrix(0.7033791881642838,-0.06444731592244564,0.05414882028008772,0.8371539863365511,-87.40727704877702,-76.75949027164131) " id="svg_15">
    <path stroke="#000" d="m596.088664,992.544441l-4.7295,-176.01s10.893,-22.321 22.321,-26.786c11.429,-4.4643 40.714,3.0357 40.714,3.0357s-6.4286,69.107 -5.8929,92.5s7.5,88.75 7.5,88.75s45.179,22.857 55.357,28.036c10.179,5.1786 44.451,25.175 57.143,34.821c20.036,15.228 23.63,31.148 22.915,35.255c-0.71428,4.1071 -6.0714,5.3571 -6.0714,5.3571s0.40469,7.9828 -2.6258,11.266c-3.0305,3.283 -8.7126,6.566 -8.7126,6.566s-3.283,6.0609 -7.1973,9.4702s-7.955,6.3134 -7.955,6.3134s-1.894,16.794 -18.94,21.718c-17.046,4.9245 -30.431,6.6923 -60.988,-15.026c-30.557,-21.718 -74.973,-45.232 -91.945,-68.142c-12.123,-16.363 -10.354,-28.537 -6.0609,-37.881c4.2932,-9.3439 15.168,-19.248 15.168,-19.248l0.0004,0.0046z" stroke-linejoin="round" stroke-width="5" id="svg_16"/>
    <path stroke="null" d="m595.568664,819.484441l4.2932,187.89s-3.1567,-5.177 -3.283,-9.849c0,0 -17.93,15.91 -14.142,34.598c3.7881,18.688 38.004,44.705 68.562,63.393c30.557,18.688 45.709,35.103 73.741,36.113s31.315,-21.718 31.567,-30.052s-4.5457,-18.94 -19.698,-25.254c-15.152,-6.3135 -28.728,-16.448 -28.728,-16.448s14.995,6.7978 24.183,10.766c12.641,5.4602 23.36,12.501 25.759,19.445c2.3991,6.9448 1.1364,16.289 1.1364,16.289s11.617,-6.4397 12.374,-14.647c0.75761,-8.2075 -5.3033,-18.814 -15.405,-26.895c-10.102,-8.0812 -14.081,-8.6197 -14.081,-8.6197s21.335,5.0662 28.14,19.914c6.6755,14.563 3.3659,15.728 3.3659,15.728s9.7227,-2.1466 9.3439,-12.753c-0.3788,-10.607 -7.5761,-18.056 -12.501,-21.845c-4.9245,-3.7881 -9.9143,-8.8722 -9.9143,-8.8722s8.6516,3.8215 14.081,8.9985c5.4296,5.177 8.1079,9.443 9.849,16.541c2.8571,-0.89286 5.0508,-1.0102 2.1466,-10.733s-19.572,-24.749 -32.956,-32.072s-96.467,-51.65 -96.467,-51.65l0,17.804c-3.1567,-6.9448 -10.102,-71.342 -11.49,-103.41c-1.389,-32.072 5.3033,-97.606 5.3033,-97.606s-27.022,-6.6923 -35.608,-2.2728c-8.5863,4.4194 -19.572,25.506 -19.572,25.506l0,-0.0068z" fill="url(#cl)" id="svg_17"/>
    <path stroke="null" d="m673.968664,1046.404441s25.357,12.857 41.071,23.214s33.214,12.679 35.893,26.607c2.6786,13.929 -3.9286,29.107 -17.857,31.786s-38.929,-2.5 -64.821,-22.679s-39.464,-33.036 -35.357,-45.357c4.1071,-12.321 41.071,-13.571 41.071,-13.571z" fill="url(#cm)" id="svg_18"/>
   </g>
   <g stroke="null" transform="matrix(0.7055207803642131,0,0,0.8397028852483276,-60.828110104966754,-109.07076663295629) " id="svg_19">
    <path stroke="#000" d="m664.735136,486.612695c-13.674,1.9405 -36.676,12.376 -54.688,20.969c0,0 7.4955,31.076 4.2812,43.219s-19.286,28.228 -55,44.656s-47.496,26.08 -46.781,46.438c0.71428,20.357 9.4987,63.902 9.4987,63.902c-7.955,6.0609 -8.9159,10.577 -10.936,12.598c-1.5152,-4.2932 -6.9688,-5.7188 -6.9688,-5.7188s-4.192,-12.214 -14.281,-11.5c-10.089,0.71428 -19.371,6.7634 -21.156,15.156c-1.7857,8.3928 2.058,15.116 3.8438,18.688c1.7857,3.5714 6.3393,27.228 7.5,31.781c1.1607,4.5536 14.188,7.2188 14.188,7.2188s1.442,7.2277 6.5312,10.531c5.0893,3.3036 11.062,2.0625 11.062,2.0625s7.0536,5.9955 18.125,6.5312c11.071,0.53572 11.781,0.0625 11.781,0.0625s-27.242,83.722 -37.344,114.53c-10.102,30.81 -17.937,53.273 -24.25,60.344c-6.3135,7.0711 -38.124,18.945 -63.125,27.531c-25.001,8.5863 -63.129,24.491 -68.938,31.562c-5.8084,7.0711 -12.965,20.846 -10.188,29.938c2.7779,9.0914 6.125,9.7188 6.125,9.7188s0.89308,6.9396 5.3125,9.8438c4.4194,2.9042 13,6.3125 13,6.3125c2.1466,7.0711 17.062,11.875 17.062,11.875s4.671,19.976 24.125,28.531c18.598,8.1794 60.813,-4.1224 76.781,-26c30.427,-41.686 55.652,-42.831 69.219,-74c7.6997,-17.69 1.6206,-39.833 5.5938,-56.562c12.054,-50.756 27.573,-84.061 48.281,-146.44c29.762,-0.44241 63.742,-23.785 77.312,-42.406c8.7224,-11.969 14.6,-20.694 13.438,-42.188c-1.0411,-19.256 -4.3848,-37.851 -5.0312,-57.562c-0.88638,-27.027 3.2,-58.073 2.0312,-85.344c-0.83027,-19.373 -14.298,-33.73 -18.125,-49.75c-4.026,-18.559 -8.2812,-56.531 -8.2812,-56.531l0.0018,0.0027zm-68.812,149.38l-16.25,51.438l-11.25,-39.844c12.679,-5.8929 27.5,-11.594 27.5,-11.594z" stroke-linejoin="round" stroke-width="5" id="svg_20"/>
    <path stroke="null" d="m661.115136,491.532695s4.2857,40 8.9286,56.071c4.6428,16.071 12.143,17.857 16.071,38.929c3.9286,21.071 -0.71428,57.5 -0.35714,91.429s8.9286,60.714 0.35714,83.571c-8.5714,22.857 -49.286,48.214 -64.643,52.143c-15.357,3.9286 -21.429,2.8571 -21.429,2.8571s-44.286,125.71 -48.214,143.21c-3.9286,17.5 -3.2143,32.5 -3.2143,44.286s-3.2143,27.143 -30.714,48.214c-27.5,21.071 -46.786,52.143 -63.929,59.643s-44.643,18.571 -62.5,-2.8571c-17.857,-21.429 -2.8572,-42.857 4.6428,-47.143c7.5,-4.2857 19.643,-10 19.643,-10s-22.411,1.875 -30.268,16.429c-7.8571,14.554 -6.5178,23.482 -6.5178,23.482s-11.964,-3.6607 -13.75,-11.339c-1.7857,-7.6786 0.80357,-15.089 5.0893,-20c4.2857,-4.9107 9.2857,-11.786 9.2857,-11.786s-12.5,7.8571 -15.625,16.786s-2.5,14.375 -2.5,14.375s-12.589,-1.875 -13.125,-13.214c-0.53571,-11.339 5.9821,-20.089 10.268,-23.661c4.2857,-3.5714 9.8214,-6.3393 9.8214,-6.3393s-14.338,4.4351 -20.179,15.982c-3.0103,5.9512 -3.2819,7.9715 -3.6607,11.696c-2.2728,-3.2199 -7.0536,-7.2322 -3.75,-17.054c3.3036,-9.8214 5.5357,-17.232 15.446,-22.143c9.9107,-4.9107 45.179,-20.804 64.196,-27.5c19.018,-6.6964 54.732,-17.143 63.125,-27.5c8.3929,-10.357 31.071,-87.5 41.429,-115c10.357,-27.5 19.464,-62.321 19.464,-62.321s23.137,0.40195 38.571,-22.143c15.893,-23.214 14.939,-39.801 9.6429,-51.786c-3.3929,-7.6786 -8.3929,-14.286 -11.429,-25.714l18.75,-58.214l31.25,-10.179l-18.571,0.35715l-20,-42.857s15,-8.9286 20.357,-18.036s7.3214,-15.714 6.9643,-20c-0.35715,-4.2857 -4.8214,-32.857 -4.8214,-32.857c12.33,-8.6415 22.215,-10.96 45.893,-19.821l0.0022,0.00415z" fill="url(#ck)" id="svg_21"/>
    <path stroke="null" d="m537.535136,759.112695s-6.9625,-27.683 -21.964,-27.411c-15.126,0.27421 -21.493,11.244 -20,14.821c5.7479,13.776 12.5,34.464 18.75,39.107s20.357,6.25 32.679,4.8214s33.75,-13.929 41.786,-36.964c8.0357,-23.036 0,-35 -6.0714,-48.214s-18.036,-59.464 -18.036,-59.464s18.834,-9.1234 28.661,-12.143c10.743,-3.3012 20,-7.5 30.357,-8.2143c10.357,-0.71429 17.589,-3.0357 17.589,-3.0357s1.4286,-23.393 -6.6072,-33.571c-8.0357,-10.179 -26.25,-14.107 -26.25,-14.107s-7.5,3.0357 -25.357,12.857s-43.75,20.536 -51.964,26.607c-8.2143,6.0714 -17.321,19.464 -14.107,37.321c3.2143,17.857 10.179,52.321 10.179,52.321s11.339,-1.3393 16.786,3.2143c-5.3571,-0.89286 -17.679,-3.2143 -23.75,4.2857s-7.3214,10.536 -7.3214,10.536l3.3929,7.5s9.8061,-1.4196 15.61,10.723c0,0 0.0153,-16.348 15.819,-20.545c16.787,-4.4577 25.714,6.7857 25.714,6.7857s-18.858,-11.181 -31.786,0c-6.6072,5.7143 -7.3214,12.097 -7.7679,16.65c5.0893,8.9286 3.6607,16.117 3.6607,16.117l-0.0017,0.0019z" fill="#942917" id="svg_22"/>
    <path stroke="null" d="m510.125136,784.202695c-8.6607,-14.107 -16.141,-31.148 -16.964,-37.321c-0.72146,-5.4084 3.2143,-10.804 9.0178,-13.661c5.8036,-2.8572 11.607,-3.4822 11.607,-3.4822s-4.1072,-12.589 -9.7322,-14.286s-19.643,-0.71429 -20.536,11.161s4.375,20.982 7.3214,29.643c2.9464,8.6607 5.5777,19.271 9.6428,24.018c4.4958,5.2502 5.693,4.402 9.6429,3.9286l0.0003,-0.0004z" fill="#942917" id="svg_23"/>
    <path stroke="null" d="m493.525136,771.442695s-4.8214,-16.964 -8.6607,-25.625c-3.8393,-8.6607 -5.0893,-17.857 -3.3928,-22.768c1.6964,-4.9107 7.2321,-9.6429 10.893,-10.357c3.6607,-0.71428 9.4643,0.26786 9.4643,0.26786s-3.4821,-9.1071 -11.071,-9.5536c-7.5893,-0.44643 -19.554,7.6786 -20.179,15.446c-0.625,7.7678 5.2679,14.375 6.7857,20.804c1.5179,6.4286 4.9107,25.893 7.5,28.929c2.5893,3.0357 8.6607,2.8571 8.6607,2.8571l-0.0002,-0.00036z" fill="#942917" id="svg_24"/>
    <path stroke="null" d="m660.965136,512.752695s1.0102,29.547 6.0609,38.891s14.142,24.496 15.405,35.355s-1.0102,73.489 -0.25253,94.197c0.75761,20.708 6.291,53.922 3.5355,67.175c-5.3033,25.506 -27.022,41.164 -41.669,50.003c-14.647,8.8388 -37.376,15.405 -44.952,13.89s-17.425,-10.607 -16.415,-19.193s46.214,-104.55 50.508,-127.78c4.2932,-23.234 1.5152,-123.24 2.2728,-133.34c0.75762,-10.102 25.506,-19.193 25.506,-19.193l0.00033,-0.005z" fill="url(#cj)" id="svg_25"/>
    <path stroke="null" d="m659.074276,766.667455c-0.64202,3.19055 -2.65162,5.47735 -4.4887,5.10769s-2.80577,-3.25577 -2.16376,-6.44632s2.65164,-5.47745 4.48872,-5.10779s2.80577,3.25577 2.16374,6.44642z" id="svg_26"/>
    <path stroke="null" d="m599.975136,634.982695l-18.94,58.463s24.749,2.2728 38.765,-17.173c14.016,-19.445 11.238,-51.518 11.238,-51.518l-31.063,10.228z" fill="url(#ci)" id="svg_27"/>
    <path stroke="null" d="m610.395136,574.562695c-14.286,10.536 -68.929,34.821 -80.536,45.536c-10.487,9.6806 -10.714,27.321 -8.2143,38.393c2.5,11.071 7.5,39.286 7.5,39.286l42.857,-2.1429l-10.357,-50.357s38.75,-19.286 51.071,-20.893s-3.6519,-43.283 -2.3214,-49.821l0.0007,-0.0011z" fill="url(#ch)" id="svg_28"/>
    <path stroke="null" d="m534.045136,706.022695c-5.0184,0.006 -10.397,1.0938 -13.812,5.3125c-6.0714,7.5 -7.3438,10.562 -7.3438,10.562l3.4062,7.5s9.7902,-1.4241 15.594,10.719c0,0 0.0402,-16.366 15.844,-20.562c5.0581,-1.3431 9.367,-1.2394 12.969,-0.46875l-17.125,-12.094c-2.3506,-0.39484 -5.8237,-0.9731 -9.5312,-0.96875l-0.0012,0z" fill="url(#cg)" id="svg_29"/>
    <path stroke="null" d="m580.905136,737.512695s-8.8388,-14.395 -25.633,-14.395c-16.794,0 -19.698,19.572 -19.698,19.572s2.1466,1.6415 3.1567,8.5863c1.0102,6.9448 2.0203,17.173 2.0203,17.173l40.154,-30.9363z" fill="url(#cf)" id="svg_30"/>
    <path stroke="null" d="m537.595136,763.272695s-5.8084,-21.971 -16.541,-28.032c-10.733,-6.0609 -24.749,5.8084 -23.865,10.228c0.88389,4.4194 6.6923,14.9 9.0914,23.107c1.6636,5.6911 31.315,-5.3033 31.315,-5.3033l-0.0004,0.0003z" fill="url(#ce)" id="svg_31"/>
    <path stroke="null" d="m511.585136,729.182695s-2.6517,-15.91 -16.162,-12.627c-13.511,3.283 -10.733,13.763 -10.102,18.309c0.63134,4.5457 4.4194,15.152 4.4194,15.152s1.1425,-9.8344 7.1973,-14.773c4.0966,-3.3417 8.46,-5.9346 14.647,-6.0609l0.0003,-0.0001z" fill="url(#cd)" id="svg_32"/>
    <path stroke="null" d="m488.635136,965.272695c-4.9936,12.455 -19.345,16.214 -30.492,21.244c-25.124,9.2436 -50.839,17.041 -75.124,28.538c-10.602,5.3742 -22.792,8.5942 -32.041,16.186c-5.4738,6.3346 -8.5115,14.824 -9.2188,22.938c-0.04439,1.7153 1.6456,7.3056 2.25,3.0625c3.5705,-11.162 13.591,-19.803 24.75,-22.506c7.5988,-1.6885 0.47248,4.1429 -2.5937,5.4125c-10.773,5.4756 -18.879,18.914 -14.656,30.938c1.3798,2.783 5.6404,6.2167 7.9688,5.625c0.40464,-10.723 5.9866,-20.585 14.781,-26.656c2.9298,-2.5373 6.3723,-4.1868 9.9375,-5.7188c-4.3872,11.443 -18.315,18.531 -17.531,31.844c-0.51243,6.1918 5.0063,10.66 10.281,12.688c1.271,-13.535 7.5052,-28.353 20.719,-33.969c7.4817,-3.3455 15.692,-5.7704 24,-4.6562c-10.266,8.2903 -26.216,9.7703 -32.594,22.469c-7.9295,12.846 -3.2521,30.119 8.0938,39.25c13.275,11.665 32.603,7.7482 47.375,1.6875c20.101,-6.0081 31.978,-24.64 46.188,-38.875c10.989,-12.554 24.471,-22.586 36.969,-33.438c-20.32,-50.63 -24.43,-66.038 -39.062,-76.062l-0.0006,-0.0015z" fill="url(#cc)" id="svg_33"/>
    <path stroke="null" d="m483.965136,1070.102695s-13.571,35 -43.571,42.143c-30,7.1428 -42.857,7.5 -52.857,-18.571s33.929,-39.643 43.929,-44.286c10,-4.6428 37.857,-4.6428 43.571,2.5c5.7143,7.1429 8.9286,18.214 8.9286,18.214l-0.0006,0z" fill="url(#cb)" id="svg_34"/>
   </g>
   <path stroke="#000" d="m294.394817,198.919723s-3.385118,-9.489076 -10.556043,-9.700949c-7.170985,-0.212055 -17.014283,3.392743 -19.731422,15.797596c-2.717007,12.405177 3.024801,31.169047 6.804239,39.415535c3.779377,8.246488 10.204687,19.042664 10.204687,19.042664s-8.566372,7.347043 -6.802902,22.791137c1.763733,15.443942 11.590029,27.888934 33.006618,41.083468s40.565776,21.441812 59.840767,21.291272c19.275001,-0.149943 28.723432,-11.395168 31.747099,-14.543859c3.023526,-3.148762 10.204687,-11.695459 10.204687,-11.695459s13.731617,-9.896103 20.912648,-22.640596c7.18103,-12.745293 8.818677,-20.991771 8.818677,-20.991771s25.826266,-15.593683 35.778639,-27.289152s19.400814,-36.585463 20.912648,-50.230039c1.511763,-13.644576 -2.897571,-34.336056 -15.117638,-37.035505c-12.219794,-2.698963 -21.542412,-2.399067 -28.849255,1.349487c-7.306843,3.748473 -12.597912,7.796922 -12.597912,7.796922s-2.015704,-15.893973 -8.566372,-26.539609c-6.550992,-10.645636 -8.692854,-13.494825 -8.692854,-13.494825s3.905392,-9.746353 -5.03923,-14.394109c-8.94449,-4.648161 -14.487873,0.749705 -14.487873,0.749705s-8.188913,-3.148762 -17.133403,-3.298674c-8.94449,-0.149943 -17.637354,4.048369 -17.637354,4.048369s-13.858109,-21.891064 -30.990843,-27.289152c-17.133403,-5.397855 -29.479688,-9.595812 -46.738914,0.149943c-17.259226,9.746353 -28.849255,28.938768 -27.085785,46.481557c1.763733,17.542799 9.322618,25.790077 18.896873,37.334996s13.731617,13.944067 13.731617,13.944067c-1.247145,2.120445 -0.830741,7.866699 -0.830741,7.866699l-0.000668,0.000284l0.00001,0z" stroke-linejoin="round" stroke-width="5.2708" id="svg_35"/>
   <path stroke="null" d="m297.493436,204.391891s-5.217383,-11.556067 3.979209,-20.402347c9.196805,-8.84627 17.059788,-8.53563 20.209269,-7.486354c3.14948,1.049591 7.684971,6.597348 7.684971,6.597348s-3.023526,-9.595812 -10.078196,-10.045844c-7.055207,-0.449819 -10.330501,2.698963 -10.330501,2.698963s3.401451,-11.245428 10.582147,-17.992841c7.18103,-6.747332 8.314736,-6.747332 8.314736,-6.747332s5.448808,0.61171 8.566372,3.898466c-2.048896,-8.269585 -15.149089,-7.109279 -18.979864,-5.837062c1.95982,-3.074691 4.218533,-5.721638 9.405609,-6.608021c5.521491,-0.943573 8.985986,-1.033177 14.865991,4.798063l-3.653422,-5.997637c-0.356337,-7.845749 -9.322618,-15.443942 -9.322618,-15.443942s12.97604,-8.246488 21.416589,2.698963c8.440549,10.945927 7.18103,14.993901 7.18103,14.993901s1.290372,-2.626159 0.666795,-4.746604c3.652348,-2.332561 14.451066,-1.10104 14.451066,-1.10104s10.960265,17.84309 19.778942,29.538549s22.646004,28.770699 22.646004,28.770699c-1.247145,1.060263 -2.237095,4.516414 -2.237095,4.516414s32.251041,-35.385889 52.155806,-34.786097c19.904765,0.599762 24.691893,7.19713 27.967854,20.69148s-9.070313,51.579364 -19.653129,62.975322c-10.582147,11.395168 -34.014511,26.389869 -34.014511,26.389869s7.306843,-37.484746 -13.605804,-44.382699c-20.912648,-6.897244 -39.80952,2.099181 -39.80952,2.099181s8.566372,-42.882835 -13.101863,-52.179146s-39.620127,15.268705 -42.203423,29.6883c0,0 -2.058941,-17.433673 -13.568997,-18.936728c-10.647732,-1.389949 -19.311808,12.339056 -19.311808,12.339056l-0.00163,-0.000881l-0.00001,0z" fill="#942917" id="svg_36"/>
   <path stroke="null" d="m410.823811,206.128326s14.609677,-17.175597 26.189661,-25.445972c11.580663,-8.269585 17.46,-11.662804 24.408127,-12.086559c6.948126,-0.424089 18.499344,0.388872 23.339338,6.149383c3.385118,4.028937 6.847071,9.547219 6.592022,18.235779c-0.890838,30.323138 -31.00022,19.508634 -42.402861,20.992571c-22.551631,1.328617 -29.309028,-4.96924 -38.127036,-7.845749l0.000739,0.000557l0.00001,-0.00001z" fill="url(#bq)" id="svg_37"/>
   <path stroke="null" d="m367.583728,122.367526c9.851327,27.243748 48.582692,71.53166 48.582692,71.53166l6.802902,-7.19713c-18.0998,-13.436683 -55.386262,-64.334205 -55.386262,-64.334205l0.000668,-0.000314l0,-0.00001z" fill="url(#bp)" id="svg_38"/>
   <path stroke="null" d="m298.048907,252.566078c-4.008655,-2.120445 -8.475351,-32.401287 -1.068992,-44.53006c7.728472,-12.655285 18.350768,-15.055233 23.339338,-12.511113c7.526361,3.8392 8.640655,16.115415 9.442417,22.68918c5.701184,-23.112935 18.08374,-33.927439 28.951648,-36.047803c11.401305,-2.224468 19.584861,2.551045 23.339338,13.358623c3.805208,10.953096 4.275885,20.144271 1.514375,39.016477c-10.689896,5.619286 -18.244356,12.30242 -24.822394,18.223031c-8.908351,1.272298 -12.591897,0.224914 -12.591897,0.224914s-11.402641,-16.539959 -27.259119,-12.722986c-13.217642,3.18166 -20.845058,12.298441 -20.845058,12.298441l0.000334,0.001296l0.00001,0z" fill="#fff" id="svg_39"/>
   <path stroke="null" d="m291.008423,228.08868c-0.629906,-14.619529 4.724287,-20.991771 4.724287,-20.991771s-4.031347,-14.84415 -11.968157,-15.443942c-7.936608,-0.599752 -20.912648,5.697741 -18.015472,26.389869c2.897571,20.69148 13.164765,39.434653 17.00759,44.082409c6.047051,-5.772703 12.850227,-4.948047 12.850227,-4.948047l1.889688,-2.848876c-4.440794,-3.373625 -5.700587,-18.105146 -6.424977,-21.703878c0,0 -2.267675,-10.908492 -8.692854,-15.556247c-6.424977,-4.648161 -9.196805,0.674733 -9.196805,0.674733s2.897571,-6.597348 8.440549,-3.898466c5.54311,2.698963 7.62206,9.595812 9.38553,14.244358l0.000405,-0.000152l-0.00001,0.00001z" fill="url(#bo)" id="svg_40"/>
   <path stroke="null" d="m446.461245,200.504817s7.215822,6.467434 6.235715,11.026376c-0.979915,4.559023 -1.158068,10.92044 -4.364962,16.009479c-3.206904,5.089119 -6.324792,9.754322 -6.324792,9.754322s23.874072,-1.378315 28.327908,-8.057702c4.45411,-6.679469 8.997367,-23.325607 9.264395,-27.247727c0.26724,-3.92291 -0.890838,-10.389949 -5.166724,-10.92044c-4.275885,-0.530127 -15.500444,0 -21.468797,3.816822c-5.968485,3.816822 -6.502945,5.619286 -6.502945,5.619286l0.000203,-0.000395l0,-0.00002z" fill="url(#bn)" id="svg_41"/>
   <path stroke="null" d="m423.352128,218.036467s6.928715,-15.443942 29.353197,-24.740253s26.316153,-2.636679 27.589726,2.998778c1.688782,7.474962 -3.527467,17.093558 -3.527467,17.093558s2.897571,-12.594742 0.755851,-17.093558c-2.141659,-4.498248 -12.97604,-5.847654 -28.471796,2.399067c0,0 5.253664,5.063552 5.03923,12.295251c-0.377946,12.745293 -9.196805,21.891064 -9.196805,21.891064s6.424977,-11.84521 5.669126,-19.192415c-0.755851,-7.347043 -7.055207,-11.84521 -7.055207,-11.84521c-7.684971,3.898466 -20.15707,16.193475 -20.15707,16.193475l0.001205,0.000243l0.00001,0z" id="svg_42"/>
   <path stroke="null" d="m296.108094,263.024528s1.007822,-5.397855 4.031347,-9.446062c3.023526,-4.048369 13.722919,-11.360123 22.676786,-11.395168c9.890139,-0.038873 15.369274,4.048369 19.400814,10.045844c4.031347,5.997637 5.228167,10.346145 5.228167,10.346145s-0.125985,-4.423216 -0.944839,-6.897244c3.401451,1.124542 11.464206,-0.299876 11.464206,-0.299876l-1.007822,4.948047c5.480138,-9.371182 18.392932,-19.941947 28.597619,-23.540679s22.424481,-8.096737 35.526334,-4.048369s15.495756,13.644576 15.873216,22.640596c0.377946,8.99602 1.889688,21.591563 -6.047051,37.635287c-7.936608,16.043724 -24.314433,28.338975 -24.314433,28.338975s-16.503648,22.041604 -29.983629,24.140461c-13.479981,2.099181 -39.179756,-3.148762 -59.211013,-14.993901c-20.030578,-11.84521 -34.014511,-22.490846 -38.928119,-36.884954c-4.913214,-14.394109 -0.125975,-23.990711 3.905392,-28.188435c4.031347,-4.198352 6.991627,-5.472806 12.723735,-6.297533l1.00929,3.896856l0,0.00001z" fill="#eab16c" id="svg_43"/>
   <path stroke="null" d="m296.9915,266.47351c0.740521,-11.196834 12.850227,-21.441812 22.550294,-22.341095c14.596291,-1.353628 21.290776,8.546779 23.684,14.244358c2.393629,5.697741 1.637718,17.393049 -5.669126,21.141521s-28.219491,5.997637 -35.148216,0.749705c-6.928715,-5.247943 -5.753524,-8.708468 -5.417155,-13.794327l0.000203,-0.000172l0,0.00001z" fill="url(#bm)" id="svg_44"/>
   <path stroke="null" d="m301.334914,264.298983s0.314943,-4.198352 2.6456,-4.198352s2.078686,11.170548 2.078686,11.170548s-1.637718,-8.096737 -2.771555,-8.321358c-1.133837,-0.224904 -1.952661,1.349487 -1.952661,1.349487l-0.000071,-0.000314l0,-0.00001z" id="svg_45"/>
   <path stroke="null" d="m329.811398,258.372793c4.409333,0.599752 2.519584,7.122179 2.519584,7.122179s-0.377946,-3.748473 -2.897571,-3.823505c-2.519584,-0.074951 -6.865814,3.898466 -10.960265,9.221441c1.773971,-5.994691 5.823858,-12.954776 11.338393,-12.519872l-0.000132,-0.000243l-0.00001,0z" id="svg_46"/>
   <path stroke="null" d="m351.67571,283.527232c0.673194,-9.30906 5.701184,-25.021427 20.667036,-36.472358c14.96571,-11.450931 31.627969,-13.76963 40.086593,-13.358623c8.729661,0.424099 17.281979,4.453006 20.132302,11.026376c2.842426,6.554577 3.385118,24.173117 0.712685,35.412176c-2.672444,11.238259 -14.609677,26.081609 -21.379781,31.807075c-6.770105,5.725304 -37.414281,5.725304 -47.034719,-4.028937s-13.986606,-13.290912 -13.184176,-24.385789l0.000071,0.000081l-0.00001,0z" fill="url(#bl)" id="svg_47"/>
   <path stroke="null" d="m289.870698,288.139153c7.660872,6.043355 13.983932,7.796922 13.983932,7.796922s13.789851,27.031076 34.278865,36.573515s35.632746,7.42168 42.937585,3.392743s20.667036,-12.298441 25.477584,-34.139311c4.810417,-21.84088 4.632263,-46.438552 4.632263,-46.438552c2.960553,0.449819 5.433954,2.70358 7.527697,6.043355c-0.311794,-2.915625 -2.422944,-10.192405 -13.407035,-11.556867c-12.021693,-1.493172 -16.925267,2.491546 -18.038903,7.156586c3.162391,-2.650612 7.961365,-4.19015 12.516267,-3.763844c0,0 -13.006154,30.110465 -47.034719,36.896113c-34.029234,6.785486 -49.306819,7.209636 -62.00043,-4.028937c0,0 1.291648,-3.339775 5.701184,-5.513269c-1.737102,-0.265053 -3.964092,-0.79518 -7.883741,4.505974c-3.726905,5.040526 -2.048836,9.277194 -0.979915,11.556867c0.400871,-5.937338 1.534121,-6.731961 2.291298,-8.481457l-0.001944,0.000162l0.00001,0z" id="svg_48"/>
   <path stroke="null" d="m306.688894,296.908953s7.936608,15.593683 20.53452,25.489786s22.676786,12.145501 22.676786,12.145501s0.25196,-11.695459 9.952383,-22.940887c9.700746,-11.245428 15.785546,-11.186476 19.526637,-9.595812c0,0 5.751783,-7.380174 12.850227,-6.897244c9.192785,0.625481 11.664312,9.109926 11.664312,9.109926c2.316137,-11.76874 5.358668,-23.980362 5.091367,-49.744152c0,0 -3.150615,-1.429774 -6.580246,-1.111723c0,0 -12.597912,33.586523 -50.896277,40.184185c-33.714686,5.807829 -44.819507,3.360806 -44.819507,3.360806l-0.000203,-0.000395l0,0.00001z" fill="url(#bk)" id="svg_49"/>
   <path stroke="null" d="m351.67571,335.054823s14.341971,4.983102 25.5666,0.424109c11.223951,-4.559023 21.112086,-15.161169 26.01165,-27.672282c0,0 -1.597022,-10.373221 -11.045929,-10.284013c-11.313625,0.106027 -20.57802,19.932388 -20.57802,19.932388s2.939674,-9.436503 6.324792,-13.889114c-3.296041,-0.106027 -9.141923,-1.160063 -19.063513,12.61705c-6.413869,8.906012 -7.215822,18.872206 -7.215822,18.872206l0.000263,-0.000354l-0.00002,0.00001z" fill="#f00" id="svg_50"/>
   <path stroke="null" d="m339.830034,177.285946c2.22706,-7.42168 11.492315,-17.203473 23.874072,-17.494205c13.540219,-0.318072 17.638022,4.559023 20.043296,11.980622c-4.543116,-3.92291 -9.05559,-10.370832 -20.845058,-8.269585c-12.905767,2.300067 -15.105588,5.952476 -23.07231,13.783168z" id="svg_51"/>
   <path stroke="null" d="m297.868212,250.869469s-7.215822,-21.310389 -2.316137,-35.624048c4.899493,-14.312859 16.836261,-19.826452 21.290776,-18.872206s9.264395,5.407171 10.244168,12.722986c0.979915,7.315663 2.49429,12.722986 -0.890838,18.660334s-12.917148,13.677232 -16.569233,15.585724c-3.652348,1.908411 -11.758675,7.527697 -11.758675,7.527697l-0.000071,-0.000476l0.00001,-0.00001z" fill="url(#bj)" id="svg_52"/>
   <path stroke="null" d="m328.171625,227.758144a10.021927,13.886583 0 1 1 -20.044552,0a10.021927,13.886583 0 1 1 20.044552,0z" id="svg_53"/>
   <path stroke="null" d="m332.642311,240.379152c0,-0.899597 -4.409333,-13.644576 0,-27.289152s15.873216,-29.838051 31.243158,-29.538549c15.369943,0.299896 18.141295,16.493766 19.400814,25.190295c1.259792,8.696529 -2.141659,25.489786 -2.141659,25.489786s-18.141295,13.194534 -27.589726,13.194534s-20.912648,-7.047228 -20.912648,-7.047228l0.000071,0.000314l-0.00001,0z" fill="url(#bi)" id="svg_54"/>
   <path stroke="null" d="m376.237951,225.385606a13.459527,18.561921 0 1 1 -26.920006,0a13.459527,18.561921 0 1 1 26.920006,0z" id="svg_55"/>
   <path stroke="null" d="m326.614549,227.760554a8.474997,11.743861 0 1 1 -16.950591,0a8.474997,11.743861 0 1 1 16.950591,0z" fill="url(#br)" id="svg_56"/>
   <path stroke="null" d="m373.981476,225.372969a11.219759,15.866087 0 1 1 -22.440318,0a11.219759,15.866087 0 1 1 22.440318,0z" fill="url(#bs)" id="svg_57"/>
   <path stroke="null" d="m366.065606,219.755516a6.235614,9.085533 0 1 1 -12.471653,0a6.235614,9.085533 0 1 1 12.471653,0z" fill="#fff" id="svg_58"/>
   <path stroke="null" d="m320.15635,223.730746a4.866645,6.743778 0 1 1 -9.733645,0a4.866645,6.743778 0 1 1 9.733645,0z" fill="#fff" id="svg_59"/>
   <path stroke="null" d="m295.820308,188.740056c2.316137,-7.103618 9.264395,-10.602621 9.264395,-10.602621c2.850597,-15.903532 17.192973,-27.4604 17.192973,-27.4604s-5.52303,-0.106027 -10.422858,1.272298c11.402641,-18.554388 24.230105,-10.92044 24.230105,-10.92044c-1.603452,-6.891584 -10.689896,-15.373841 -10.689896,-15.373841c3.206965,-3.604777 14.598295,-9.579085 23.606366,-2.544595c6.11137,4.772415 8.729661,13.783168 8.729661,13.783168c6.146638,-3.710794 13.362198,-0.954246 13.362198,-0.954246s-11.045929,-32.867257 -39.373837,-41.985141s-47.926155,-0.318072 -60.931641,22.583244c-13.006154,22.901063 -0.26724,42.727515 2.939674,46.756361c3.206965,4.028937 17.014283,22.158689 22.092527,25.445972l0.000334,0.000243z" fill="url(#bh)" id="svg_60"/>
   <path stroke="null" d="m370.64888,122.579398l39.730549,49.725035s8.478025,-29.61582 -3.02875,-46.332606c-6.057562,-8.800076 -33.583516,-8.057702 -36.701535,-3.392743l-0.000263,0.000314z" fill="url(#bg)" id="svg_61"/>
   <path stroke="null" d="m411.807604,173.685624c5.166724,6.467434 13.09517,11.874686 13.09517,11.874686c6.146638,-6.149383 12.115387,-10.389949 12.115387,-10.389949s-2.939674,-32.549438 -26.100656,-47.392788c9.97714,20.992571 0.890838,45.908061 0.890838,45.908061l-0.000739,0l0,-0.00001z" fill="url(#bf)" id="svg_62"/>
   <path stroke="null" d="m404.144727,120.882789s9.97714,5.195137 15.232748,11.344195c0,0 2.583367,-6.2554 -2.583367,-10.496685c-5.166724,-4.240972 -9.264395,-3.392743 -12.649452,-0.848229l0.000071,0.000719z" fill="url(#be)" id="svg_63"/>
   <path stroke="null" d="m391.803798,299.218892c-9.14728,1.235976 -14.645816,11.474828 -19.486478,19.635287c-3.043676,5.224046 -2.409689,-1.963131 -1.20572,-4.376536c1.094083,-3.18485 2.574325,-6.46552 3.936651,-9.250117c-8.210329,1.440204 -14.159271,9.861048 -18.408991,17.711657c-1.490681,3.355308 -3.016832,7.322346 -3.240836,10.915661c11.094118,3.340494 23.600351,2.62712 33.091614,-5.72021c6.43247,-5.198397 12.303443,-12.330297 15.189916,-20.860348c-1.188588,-5.04085 -5.432212,-8.600142 -9.876753,-8.055313l0.000597,-0.000081z" fill="url(#bd)" id="svg_64"/>
   <path stroke="null" d="m291.905216,205.17249s0.623567,-7.42168 -6.057562,-10.814504c-6.681099,-3.392743 -14.252965,2.75663 -16.391211,6.573451c-2.137983,3.816822 -3.563272,9.117884 -2.76152,14.949296c0.801761,5.831321 1.95982,12.722986 3.741425,16.327287c1.781605,3.604777 2.583367,3.392743 3.919579,3.180708c1.336222,-0.212045 -1.95982,-15.797596 -1.068992,-17.91796c0.890838,-2.120445 2.850597,-4.983102 6.146638,-5.089119s5.790332,2.650612 8.551649,0.954246c2.76152,-1.696377 3.919579,-8.163649 3.919579,-8.163649l0.000405,0.000243l0.00001,0z" fill="url(#bc)" id="svg_65"/>
   <path stroke="null" d="m297.607199,201.779271s-2.22706,-5.513269 1.247145,-12.61705c3.474195,-7.103618 14.96571,-11.662804 18.974507,-11.874686c4.008655,-0.212045 9.264395,4.240972 10.778902,6.573451c1.514375,2.332561 0.089077,8.269585 -3.117888,8.800076c-3.206965,0.530127 -7.215822,-2.75663 -11.669669,-1.590349c-4.45411,1.16628 -8.908351,2.120445 -11.313625,5.407252c-0.985798,1.803902 -3.195523,3.636248 -4.899493,5.301154l0.000132,0.000162l-0.00001,-0.00001z" fill="url(#bb)" id="svg_66"/>
   <path stroke="null" d="m338.578535,182.375774s6.057562,-10.708558 13.896921,-14.525541c7.838894,-3.816893 13.718241,-3.92291 17.994724,-2.968674c4.275885,0.954246 9.799118,4.346989 12.827464,8.269585c3.02875,3.92291 7.838894,13.040804 6.948126,17.706088c-0.890838,4.66504 -4.543116,5.831321 -4.543116,5.831321s-3.474195,-15.903532 -15.500444,-17.600152c-12.025713,-1.696377 -20.310324,0.106017 -26.813401,6.997601c-6.502945,6.891584 -8.462633,5.301235 -8.462633,5.301235l3.652348,-9.011472l0.00001,0.00001z" fill="url(#ba)" id="svg_67"/>
   <path stroke="null" d="m331.009352,125.826066c3.275496,-1.049591 9.826559,-2.399067 12.97604,-0.149943c5.418633,3.869466 8.993347,7.791029 11.338393,14.694399c2.393629,7.047228 1.133837,12.295251 1.133837,12.295251l-12.093971,-1.049591s-1.763733,-5.547758 -3.14948,-7.497026c-1.385747,-1.949188 -1.511763,-3.298674 -1.511763,-3.298674s-2.897571,-10.945927 -8.692854,-14.993901l-0.000203,-0.000527l0,0.00001z" fill="url(#az)" id="svg_68"/>
   <path stroke="null" d="m319.029813,148.02538s3.117888,-3.975888 8.95252,-4.771058c5.834834,-0.79517 9.754281,1.272298 12.605273,4.028937c2.850597,2.75663 3.607785,6.785486 2.137983,8.640767c-1.469872,1.855443 -5.166724,0.318072 -5.656681,-1.325266c-0.489947,-1.643398 -0.578508,-4.725421 -6.502945,-6.573451c-3.668813,-1.144459 -7.867003,-1.201093 -11.535816,0l-0.000334,0.000081l0,-0.00001z" fill="url(#cn)" id="svg_69"/>
  </g>
 </g>
</svg>