<svg width="640" height="240" xmlns="http://www.w3.org/2000/svg" xmlns:svg="http://www.w3.org/2000/svg">
 <!-- Created with SVG-edit - http://svg-edit.googlecode.com/ -->
  <g>
  <title>background</title>
  <rect fill="none" id="canvas_background" height="417" width="482" y="-1" x="-1"/>
 </g>

 <g>
  <title>Layer 1</title>
  <g transform="translate(-144.97885131835938,62.579280853271484) scale(1.4681700468063354) " fill="#83af9b" id="svg_1" stroke="null">
   <g id="line1" stroke="null">
    <path d="m107.74776,45.26688l-0.3166,0c-2.7439,0.73874 -4.11585,2.21623 -4.11585,4.43245c0,1.58302 0.89704,2.69113 2.69113,3.32434c0.42214,0.10553 1.31918,0.1583 2.69113,0.1583c1.37195,0 3.85201,-0.73874 7.44019,-2.21623c4.01031,1.37195 8.97044,4.01031 14.88038,7.91509c-4.32692,9.49811 -8.2317,14.40547 -11.71434,14.72207c-0.3166,0 -0.60682,0.1583 -0.87066,0.47491c-0.26384,0.3166 -0.29022,0.65959 -0.07915,1.02896c0.21107,0.36937 0.84428,0.55406 1.89962,0.55406c4.22138,0 9.07597,-4.74906 14.56377,-14.24717c7.59849,5.69887 12.98075,9.60365 16.14679,11.71434c1.58302,1.05535 4.30053,2.82305 8.15255,5.30311c3.85201,2.48006 7.07082,4.22138 9.65641,5.22396c2.5856,1.00258 6.12101,2.29538 10.60623,3.8784c4.48522,1.58302 9.6828,2.37453 15.59273,2.37453c8.75937,0 15.24975,-1.79409 19.47113,-5.38226c3.58818,-3.0605 5.43503,-6.59591 5.54057,-10.60623l0,-1.89962c0,-3.69371 -0.79151,-7.28189 -2.37453,-10.76453c-0.63321,-1.26641 -1.47748,-1.82047 -2.53283,-1.66217c-1.05535,0.1583 -1.1345,1.1345 -0.23745,2.92858c0.89704,1.79409 1.34557,3.85201 1.34557,6.17377c0,2.32176 -1.31918,4.53799 -3.95755,6.64868c-5.06566,4.22138 -11.4505,6.33207 -19.15453,6.33207c-7.07082,0 -14.511,-1.31918 -22.32056,-3.95755c-6.75421,-2.21623 -18.20472,-8.49553 -34.35151,-18.83792c2.84943,-4.85459 5.85717,-11.02836 9.02321,-18.52132c9.07597,-3.16604 17.83534,-7.73041 26.27811,-13.69311c8.44277,-5.9627 15.6455,-13.27097 21.60821,-21.92481c5.9627,-8.65384 8.94406,-17.36044 8.94406,-26.11981c0,-4.64352 -1.10811,-8.49553 -3.32434,-11.55604c-3.27157,-4.43245 -7.70402,-6.64868 -13.29736,-6.64868c-2.00516,0 -4.96013,0.79151 -8.8649,2.37453c-3.90478,1.58302 -8.17893,5.01289 -12.82245,10.28962c-4.64352,5.27673 -10.13132,18.04641 -16.46339,38.30905c0,0.10553 -1.02896,3.61456 -3.08689,10.52707c-2.05792,6.91252 -3.93116,12.79607 -5.61972,17.65066l-3.48264,0.94981c-1.26641,0.42214 -1.89962,1.00258 -1.89962,1.74132c0,0.73874 0.52767,1.02896 1.58302,0.87066c1.05535,-0.1583 1.89962,-0.39575 2.53283,-0.71236c-1.05535,3.37711 -2.84943,8.02063 -5.38226,13.93056l-8.39,-5.22396c-2.00516,-1.16088 -3.85201,-2.05792 -5.54057,-2.69113c0.42214,-0.21107 1.6094,-0.47491 3.56179,-0.79151c1.95239,-0.3166 3.35072,-0.76513 4.195,-1.34557c0.84428,-0.58044 0.97619,-0.97619 0.39575,-1.18726c-0.58044,-0.21107 -1.47748,-0.07915 -2.69113,0.39575c-1.21365,0.47491 -2.98135,0.71236 -5.30311,0.71236l-10.60623,-0.94981l-0.00001,0.00004zm88.01584,-69.65282c0,1.89962 -0.21107,3.95755 -0.63321,6.17377c-2.21623,11.81987 -7.73041,22.4261 -16.54255,31.81868c-8.81214,9.39258 -19.28644,16.83277 -31.42292,22.32056c1.58302,-3.69371 4.11585,-10.39516 7.59849,-20.10434c1.16088,-4.85459 2.79667,-10.23685 4.90736,-16.14679c0.84428,-2.4273 2.21623,-6.20016 4.11585,-11.31858c1.89962,-5.11843 4.96013,-10.63261 9.18151,-16.54255c3.79924,-5.4878 8.39,-8.2317 13.77226,-8.2317c6.01547,0 9.02321,4.01031 9.02321,12.03094l0,0.00001z" id="svg_2" stroke="null"/>
    <path d="m197.34662,55.55651c3.69371,0 7.83594,-1.84686 12.4267,-5.54057c4.59075,-3.69371 8.62745,-7.54572 12.11009,-11.55604c3.48264,-4.01031 5.43503,-6.12101 5.85717,-6.33207c-2.00516,5.27673 -3.00774,10.28962 -3.00774,15.03868c0,1.58302 0.1583,3.00774 0.47491,4.27415c1.37195,4.01031 4.06308,6.01547 8.0734,6.01547c4.22138,0 8.81214,-1.84686 13.77226,-5.54057c2.63836,-1.89962 6.46399,-5.51418 11.47689,-10.84368c5.01289,-5.3295 7.51934,-8.78575 7.51934,-10.36877c0,-0.21107 -0.26384,-0.44852 -0.79151,-0.71236c-0.52767,-0.26384 -1.00258,-0.13192 -1.42472,0.39575c-2.95497,4.22138 -6.88613,8.5483 -11.79349,12.98075c-4.90736,4.43245 -8.73299,7.38742 -11.47689,8.8649c-2.7439,1.47748 -4.90736,1.37195 -6.49038,-0.3166c-0.84428,-0.94981 -1.26641,-2.16346 -1.26641,-3.64094c0,-1.47748 0.05277,-2.69113 0.1583,-3.64094c0.94981,-7.70402 4.11585,-15.35528 9.49811,-22.95377c0.63321,-1.05535 0.05277,-1.95239 -1.74132,-2.69113c-1.79409,-0.73874 -3.32434,-1.10811 -4.59075,-1.10811c-0.73874,0 -5.9627,5.22396 -15.67189,15.67189c-2.7439,2.95497 -7.86233,7.59849 -15.35528,13.93056c-4.53799,3.58818 -7.91509,5.38226 -10.13132,5.38226c-2.21623,0 -3.32434,-1.95239 -3.32434,-5.85717c0,-2.00516 1.39833,-5.19758 4.195,-9.57726c2.79667,-4.37969 6.04185,-8.31085 9.73557,-11.79349c4.43245,-3.90478 9.15512,-7.14997 14.16802,-9.73557c5.01289,-2.5856 9.49811,-3.8784 13.45566,-3.8784c3.95755,0 6.56953,1.00258 7.83594,3.00774c0.42214,0.21107 0.68597,0.26384 0.79151,0.1583c0.10553,-0.10553 0.1583,-0.42214 0.1583,-0.94981c0,-1.58302 -1.00258,-3.08689 -3.00774,-4.5116c-2.00516,-1.42472 -4.40607,-2.13708 -7.20274,-2.13708c-2.79667,0 -5.67248,0.36937 -8.62745,1.10811c-2.95497,0.73874 -6.96528,2.5856 -12.03094,5.54057c-5.06566,2.95497 -9.94663,6.51676 -14.64292,10.68538c-4.69629,4.16862 -8.09978,8.46915 -10.21047,12.9016c-0.94981,1.89962 -1.42472,3.90478 -1.42472,6.01547c0,2.11069 0.68597,4.08946 2.05792,5.93632c1.37195,1.84686 3.03412,3.27157 4.98651,4.27415c1.95239,1.00258 3.77286,1.50387 5.46141,1.50387l0.00001,0.00001z" id="svg_3" stroke="null"/>
    <path d="m311.32397,20.8884c0,-0.73874 -0.05277,-1.53025 -0.1583,-2.37453c-0.42214,-3.27157 -2.69113,-5.6461 -6.80698,-7.12358c-1.89962,-0.63321 -3.79924,-0.94981 -5.69887,-0.94981c-4.74906,0 -9.65641,2.05792 -14.72207,6.17377c-3.79924,2.84943 -8.75937,8.91767 -14.88038,18.20472c4.01031,-9.60365 7.04443,-16.01487 9.10236,-19.23368c2.05792,-3.2188 3.08689,-5.72525 3.08689,-7.51934c0,-2.4273 -1.68855,-3.64094 -5.06566,-3.64094c-3.37711,0 -5.06566,0.63321 -5.06566,1.89962c-0.21107,3.37711 -1.47748,8.44277 -3.79924,15.19698c-1.37195,4.01031 -2.4273,7.07082 -3.16604,9.18151c-0.73874,2.11069 -4.80182,12.79607 -12.18924,32.05613c-7.38742,19.26006 -13.50843,33.85022 -18.36302,43.77047c-0.3166,0.73874 -0.47491,1.31918 -0.47491,1.74132c0,1.05535 0.52767,1.58302 1.58302,1.58302c1.05535,0 2.84943,-0.39575 5.38226,-1.18726c2.53283,-0.79151 4.06308,-1.82047 4.59075,-3.08689c1.16088,-2.11069 2.34814,-4.93374 3.56179,-8.46915c1.21365,-3.53541 1.84686,-6.33207 1.89962,-8.39c0.05277,-2.05792 0.29022,-3.77286 0.71236,-5.14481c4.11585,-12.66415 7.33465,-21.68736 9.65641,-27.06962c1.58302,0.52767 3.61456,0.79151 6.09462,0.79151c2.48006,0 6.17377,-0.84428 11.08113,-2.53283c4.90736,-1.68855 9.73557,-4.06308 14.48462,-7.12358c5.17119,-3.58818 9.65641,-7.78318 13.45566,-12.585c3.79924,-4.80182 5.69887,-9.5245 5.69887,-14.16802l0.00001,-0.00001zm-7.75679,-2.21623c0,2.53283 -1.05535,5.43503 -3.16604,8.7066c-3.79924,6.54314 -9.55088,12.61138 -17.2549,18.20472c-7.70402,5.59333 -14.77484,8.39 -21.21245,8.39c0.3166,-0.63321 1.37195,-2.82305 3.16604,-6.56953c1.79409,-3.74648 3.72009,-7.38742 5.77802,-10.92283c2.05792,-3.53541 4.98651,-7.30827 8.78575,-11.31858c3.79924,-4.01031 7.59849,-7.01805 11.39773,-9.02321c3.79924,-2.00516 6.54314,-3.00774 8.2317,-3.00774c2.84943,0 4.27415,1.84686 4.27415,5.54057z" id="svg_4" stroke="null"/>
    <path d="m375.27793,-26.91877c-4.53799,8.75937 -11.31858,18.73239 -20.34179,29.91905c-9.02321,11.18667 -17.17575,19.26006 -24.45764,24.22019c2.95497,-8.12616 7.59849,-17.88811 13.93056,-29.28585c7.91509,-14.14163 16.09402,-24.48402 24.53679,-31.02717c2.21623,-1.68855 4.06308,-2.53283 5.54057,-2.53283c1.79409,0 2.69113,1.10811 2.69113,3.32434c0,1.26641 -0.63321,3.0605 -1.89962,5.38226l0,0.00001zm-47.17396,60.47131c23.42868,-19.5239 40.57805,-38.73119 51.44811,-57.62188c1.58302,-3.27157 2.37453,-5.8044 2.37453,-7.59849c0,-1.79409 -0.26384,-3.16604 -0.79151,-4.11585c-1.58302,-2.7439 -4.61714,-4.11585 -9.10236,-4.11585c-4.48522,0 -8.83852,2.00516 -13.0599,6.01547c-2.21623,2.00516 -3.90478,3.69371 -5.06566,5.06566l-4.90736,6.17377c-5.69887,7.59849 -12.08371,18.86431 -19.15453,33.79745c-7.07082,14.93314 -10.81729,26.09342 -11.23943,33.48085l0,0.94981c0,7.80956 4.01031,11.71434 12.03094,11.71434c3.48264,0 6.96528,-1.2928 10.44792,-3.8784c3.48264,-2.5856 7.36104,-6.09462 11.63519,-10.52707c4.27415,-4.43245 7.20274,-8.0734 8.78575,-10.92283c0.42214,-1.37195 0.1583,-2.05792 -0.79151,-2.05792c-0.42214,0 -0.73874,0.1583 -0.94981,0.47491c-2.63836,3.69371 -6.38484,7.78318 -11.23943,12.26839c-4.85459,4.48522 -8.8649,7.57211 -12.03094,9.26066c-4.22138,2.4273 -7.22912,2.21623 -9.02321,-0.63321c-1.05535,-1.68855 -1.58302,-3.56179 -1.58302,-5.61972c0,-2.05792 0.05277,-3.69371 0.1583,-4.90736c0.10553,-1.21365 0.79151,-3.61456 2.05792,-7.20274l0.00001,0.00001z" id="svg_5" stroke="null"/>
    <path d="m365.46321,55.55651c3.69371,0 7.83594,-1.84686 12.4267,-5.54057c4.59075,-3.69371 8.62745,-7.54572 12.11009,-11.55604c3.48264,-4.01031 5.43503,-6.12101 5.85717,-6.33207c-2.00516,5.27673 -3.00774,10.28962 -3.00774,15.03868c0,1.58302 0.1583,3.00774 0.47491,4.27415c1.37195,4.01031 4.06308,6.01547 8.0734,6.01547c4.22138,0 8.81214,-1.84686 13.77226,-5.54057c2.63836,-1.89962 6.46399,-5.51418 11.47689,-10.84368c5.01289,-5.3295 7.51934,-8.78575 7.51934,-10.36877c0,-0.21107 -0.26384,-0.44852 -0.79151,-0.71236c-0.52767,-0.26384 -1.00258,-0.13192 -1.42472,0.39575c-2.95497,4.22138 -6.88613,8.5483 -11.79349,12.98075c-4.90736,4.43245 -8.73299,7.38742 -11.47689,8.8649c-2.7439,1.47748 -4.90736,1.37195 -6.49038,-0.3166c-0.84428,-0.94981 -1.26641,-2.16346 -1.26641,-3.64094c0,-1.47748 0.05277,-2.69113 0.1583,-3.64094c0.94981,-7.70402 4.11585,-15.35528 9.49811,-22.95377c0.63321,-1.05535 0.05277,-1.95239 -1.74132,-2.69113c-1.79409,-0.73874 -3.32434,-1.10811 -4.59075,-1.10811c-0.73874,0 -5.9627,5.22396 -15.67189,15.67189c-2.7439,2.95497 -7.86233,7.59849 -15.35528,13.93056c-4.53799,3.58818 -7.91509,5.38226 -10.13132,5.38226c-2.21623,0 -3.32434,-1.95239 -3.32434,-5.85717c0,-2.00516 1.39833,-5.19758 4.195,-9.57726c2.79667,-4.37969 6.04185,-8.31085 9.73557,-11.79349c4.43245,-3.90478 9.15512,-7.14997 14.16802,-9.73557c5.01289,-2.5856 9.49811,-3.8784 13.45566,-3.8784c3.95755,0 6.56953,1.00258 7.83594,3.00774c0.42214,0.21107 0.68597,0.26384 0.79151,0.1583c0.10553,-0.10553 0.1583,-0.42214 0.1583,-0.94981c0,-1.58302 -1.00258,-3.08689 -3.00774,-4.5116c-2.00516,-1.42472 -4.40607,-2.13708 -7.20274,-2.13708c-2.79667,0 -5.67248,0.36937 -8.62745,1.10811c-2.95497,0.73874 -6.96528,2.5856 -12.03094,5.54057c-5.06566,2.95497 -9.94663,6.51676 -14.64292,10.68538c-4.69629,4.16862 -8.09978,8.46915 -10.21047,12.9016c-0.94981,1.89962 -1.42472,3.90478 -1.42472,6.01547c0,2.11069 0.68597,4.08946 2.05792,5.93632c1.37195,1.84686 3.03412,3.27157 4.98651,4.27415c1.95239,1.00258 3.77286,1.50387 5.46141,1.50387l0.00001,0.00001z" id="svg_6" stroke="null"/>
    <path d="m469.62584,18.98877c-0.21107,0.63321 -0.02638,1.24003 0.55406,1.82047c0.58044,0.58044 1.4511,-0.13192 2.61198,-2.13708c1.16088,-2.00516 1.74132,-3.79924 1.74132,-5.38226c0,-2.32176 -1.47748,-4.01031 -4.43245,-5.06566c-1.16088,-0.3166 -2.37453,-0.47491 -3.64094,-0.47491c-5.06566,0 -11.92541,3.16604 -20.57924,9.49811c-8.65384,6.33207 -14.29994,12.50585 -16.9383,18.52132c-1.47748,3.58818 -2.21623,6.91252 -2.21623,9.97302c0,3.0605 1.34557,5.85717 4.0367,8.39c2.69113,2.53283 6.62229,3.79924 11.79349,3.79924c1.79409,0 3.74648,-0.1583 5.85717,-0.47491c7.28189,-1.26641 13.69311,-4.0367 19.23368,-8.31085c5.54057,-4.27415 10.84368,-9.8411 15.90934,-16.70085c0.3166,-0.73874 0.47491,-1.2928 0.47491,-1.66217c0,-0.36937 -0.29022,-0.65959 -0.87066,-0.87066c-0.58044,-0.21107 -1.08173,-0.05277 -1.50387,0.47491c-4.96013,6.33207 -9.6828,11.26582 -14.16802,14.80122c-4.48522,3.53541 -10.10494,6.25292 -16.85915,8.15255c-3.0605,0.73874 -5.90994,1.10811 -8.5483,1.10811c-2.63836,0 -4.59075,-0.94981 -5.85717,-2.84943c-0.63321,-0.94981 -0.94981,-2.13708 -0.94981,-3.56179c0,-1.42472 0.26384,-3.03412 0.79151,-4.82821c2.00516,-6.85975 6.75421,-13.66673 14.24717,-20.42094c7.49296,-6.75421 13.40289,-10.13132 17.72981,-10.13132c1.58302,0 2.37453,1.05535 2.37453,3.16604l-0.79151,3.16604l-0.00002,0.00001z" id="svg_7" stroke="null"/>
    <path d="m516.32489,7.74934c-5.06566,0 -11.92541,3.16604 -20.57924,9.49811c-8.65384,6.33207 -14.29994,12.50585 -16.9383,18.52132c-1.37195,3.48264 -2.05792,6.49038 -2.05792,9.02321c0,2.53283 0.58044,4.69629 1.74132,6.49038c3.0605,4.53799 8.39,6.80698 15.98849,6.80698c8.8649,0 17.99365,-4.01031 27.38622,-12.03094c4.85459,-4.11585 8.8649,-8.81214 12.03094,-14.08887c0.3166,-0.42214 0.47491,-0.79151 0.47491,-1.10811c0,-0.3166 -0.21107,-0.58044 -0.63321,-0.79151c-0.52767,-0.52767 -1.10811,-0.36937 -1.74132,0.47491c-6.43761,9.81472 -15.61912,17.14937 -27.54453,22.00396c-4.11585,1.68855 -7.75679,2.53283 -10.92283,2.53283c-2.84943,0 -4.96013,-0.73874 -6.33207,-2.21623c-1.37195,-1.47748 -2.05792,-3.03412 -2.05792,-4.66991c0,-1.63579 0.26384,-3.29796 0.79151,-4.98651c1.68855,-5.4878 5.27673,-11.10751 10.76453,-16.85915c5.4878,-5.75163 10.71176,-9.78833 15.67189,-12.11009c2.32176,-1.16088 4.16862,-1.74132 5.54057,-1.74132c1.68855,0 2.53283,0.87066 2.53283,2.61198c0,1.74132 -0.68597,3.56179 -2.05792,5.46141c-3.27157,4.01031 -8.44277,7.91509 -15.51358,11.71434c-3.79924,2.11069 -6.91252,3.27157 -9.33981,3.48264c-0.21107,0 -0.50129,0.05277 -0.87066,0.1583c-0.36937,0.10553 -0.50129,0.36937 -0.39575,0.79151c0.10553,0.94981 0.89704,1.37195 2.37453,1.26641c4.11585,-0.3166 9.12874,-1.92601 15.03868,-4.82821c5.90994,-2.9022 10.18409,-6.30569 12.82245,-10.21047c1.58302,-1.79409 2.37453,-4.11585 2.37453,-6.96528c0,-5.4878 -2.84943,-8.2317 -8.5483,-8.2317l-0.00004,0.00001z" id="svg_8" stroke="null"/>
   </g>
  </g>
 </g>
</svg>